<svg width="290" height="287" viewBox="0 0 290 287" fill="none" xmlns="http://www.w3.org/2000/svg">
<path d="M7.31647 91.2865C7.31647 44.9604 45.7364 7.14362 93.4566 7.14362H251.413C268.69 7.14362 282.431 20.8097 282.431 37.3445V248.841C282.431 265.376 268.69 279.042 251.413 279.042H38.3346C21.0573 279.042 7.31647 265.376 7.31647 248.841V91.2865Z" fill="white" stroke="#6B7AE5" stroke-width="14.2872"/>
<path d="M70.4914 229.414L75.4436 218.304H77.9832L82.9513 229.414H80.2529L76.1896 219.605H77.2054L73.1262 229.414H70.4914ZM72.9675 227.034L73.65 225.081H79.3641L80.0625 227.034H72.9675ZM84.104 229.414V218.304H88.9134C89.9081 218.304 90.7652 218.468 91.4847 218.796C92.2043 219.113 92.7598 219.574 93.1513 220.177C93.5429 220.78 93.7386 221.499 93.7386 222.335C93.7386 223.161 93.5429 223.875 93.1513 224.478C92.7598 225.081 92.2043 225.547 91.4847 225.875C90.7652 226.192 89.9081 226.351 88.9134 226.351H85.5325L86.6754 225.192V229.414H84.104ZM86.6754 225.478L85.5325 224.256H88.7705C89.5641 224.256 90.1567 224.087 90.5482 223.748C90.9398 223.409 91.1355 222.939 91.1355 222.335C91.1355 221.722 90.9398 221.245 90.5482 220.907C90.1567 220.568 89.5641 220.399 88.7705 220.399H85.5325L86.6754 219.177V225.478ZM95.5744 229.414V218.304H100.384C101.378 218.304 102.236 218.468 102.955 218.796C103.675 219.113 104.23 219.574 104.622 220.177C105.013 220.78 105.209 221.499 105.209 222.335C105.209 223.161 105.013 223.875 104.622 224.478C104.23 225.071 103.675 225.526 102.955 225.843C102.236 226.161 101.378 226.319 100.384 226.319H97.0029L98.1457 225.192V229.414H95.5744ZM102.638 229.414L99.86 225.383H102.606L105.415 229.414H102.638ZM98.1457 225.478L97.0029 224.272H100.241C101.035 224.272 101.627 224.102 102.019 223.764C102.41 223.415 102.606 222.939 102.606 222.335C102.606 221.722 102.41 221.245 102.019 220.907C101.627 220.568 101.035 220.399 100.241 220.399H97.0029L98.1457 219.177V225.478ZM112.643 229.605C111.765 229.605 110.95 229.462 110.199 229.176C109.458 228.891 108.812 228.489 108.262 227.97C107.722 227.452 107.299 226.843 106.992 226.145C106.696 225.446 106.548 224.684 106.548 223.859C106.548 223.034 106.696 222.272 106.992 221.573C107.299 220.875 107.728 220.267 108.278 219.748C108.828 219.23 109.474 218.828 110.214 218.542C110.955 218.256 111.759 218.113 112.627 218.113C113.505 218.113 114.31 218.256 115.04 218.542C115.78 218.828 116.421 219.23 116.96 219.748C117.51 220.267 117.939 220.875 118.246 221.573C118.553 222.261 118.706 223.023 118.706 223.859C118.706 224.684 118.553 225.452 118.246 226.161C117.939 226.859 117.51 227.467 116.96 227.986C116.421 228.494 115.78 228.891 115.04 229.176C114.31 229.462 113.511 229.605 112.643 229.605ZM112.627 227.415C113.124 227.415 113.579 227.33 113.992 227.161C114.415 226.991 114.786 226.748 115.103 226.43C115.421 226.113 115.664 225.737 115.833 225.304C116.013 224.87 116.103 224.388 116.103 223.859C116.103 223.33 116.013 222.849 115.833 222.415C115.664 221.981 115.421 221.605 115.103 221.288C114.796 220.97 114.431 220.727 114.008 220.558C113.585 220.388 113.124 220.304 112.627 220.304C112.13 220.304 111.669 220.388 111.246 220.558C110.833 220.727 110.468 220.97 110.151 221.288C109.833 221.605 109.585 221.981 109.405 222.415C109.236 222.849 109.151 223.33 109.151 223.859C109.151 224.378 109.236 224.859 109.405 225.304C109.585 225.737 109.828 226.113 110.135 226.43C110.452 226.748 110.823 226.991 111.246 227.161C111.669 227.33 112.13 227.415 112.627 227.415ZM123.615 229.414L118.822 218.304H121.6L125.79 228.145H124.155L128.409 218.304H130.964L126.155 229.414H123.615ZM134.257 222.78H139.606V224.78H134.257V222.78ZM134.447 227.351H140.495V229.414H131.892V218.304H140.289V220.367H134.447V227.351ZM142.541 229.414V218.304H145.112V229.414H142.541ZM150.051 229.414V220.399H146.495V218.304H156.177V220.399H152.622V229.414H150.051ZM159.926 222.78H165.275V224.78H159.926V222.78ZM160.116 227.351H166.164V229.414H157.561V218.304H165.957V220.367H160.116V227.351ZM176.355 229.605C175.467 229.605 174.615 229.489 173.8 229.256C172.985 229.012 172.329 228.7 171.832 228.319L172.705 226.383C173.181 226.721 173.742 227.002 174.387 227.224C175.043 227.436 175.705 227.542 176.371 227.542C176.879 227.542 177.287 227.494 177.594 227.399C177.911 227.293 178.144 227.15 178.292 226.97C178.44 226.79 178.514 226.584 178.514 226.351C178.514 226.055 178.398 225.822 178.165 225.653C177.932 225.473 177.625 225.33 177.244 225.224C176.863 225.108 176.44 225.002 175.975 224.907C175.52 224.801 175.059 224.674 174.594 224.526C174.139 224.378 173.721 224.187 173.34 223.954C172.959 223.722 172.647 223.415 172.403 223.034C172.17 222.653 172.054 222.166 172.054 221.573C172.054 220.939 172.223 220.362 172.562 219.843C172.911 219.314 173.43 218.896 174.117 218.589C174.816 218.272 175.689 218.113 176.736 218.113C177.435 218.113 178.123 218.198 178.8 218.367C179.477 218.526 180.075 218.769 180.593 219.097L179.8 221.05C179.281 220.753 178.763 220.536 178.244 220.399C177.726 220.251 177.218 220.177 176.721 220.177C176.223 220.177 175.816 220.235 175.498 220.351C175.181 220.468 174.953 220.621 174.816 220.812C174.678 220.991 174.61 221.203 174.61 221.446C174.61 221.732 174.726 221.965 174.959 222.145C175.192 222.314 175.498 222.452 175.879 222.558C176.26 222.663 176.678 222.769 177.133 222.875C177.599 222.981 178.059 223.103 178.514 223.24C178.98 223.378 179.403 223.563 179.784 223.796C180.165 224.028 180.472 224.335 180.705 224.716C180.948 225.097 181.07 225.579 181.07 226.161C181.07 226.785 180.895 227.356 180.546 227.875C180.197 228.393 179.673 228.811 178.974 229.129C178.287 229.446 177.414 229.605 176.355 229.605ZM185.192 222.78H190.541V224.78H185.192V222.78ZM185.382 227.351H191.43V229.414H182.827V218.304H191.223V220.367H185.382V227.351ZM198.412 229.605C196.835 229.605 195.602 229.166 194.714 228.288C193.825 227.409 193.38 226.155 193.38 224.526V218.304H195.952V224.431C195.952 225.489 196.169 226.251 196.602 226.716C197.036 227.182 197.645 227.415 198.428 227.415C199.211 227.415 199.819 227.182 200.253 226.716C200.687 226.251 200.904 225.489 200.904 224.431V218.304H203.443V224.526C203.443 226.155 202.999 227.409 202.11 228.288C201.221 229.166 199.988 229.605 198.412 229.605ZM209.635 229.605C208.746 229.605 207.894 229.489 207.08 229.256C206.265 229.012 205.609 228.7 205.111 228.319L205.984 226.383C206.461 226.721 207.021 227.002 207.667 227.224C208.323 227.436 208.984 227.542 209.651 227.542C210.159 227.542 210.566 227.494 210.873 227.399C211.191 227.293 211.423 227.15 211.572 226.97C211.72 226.79 211.794 226.584 211.794 226.351C211.794 226.055 211.677 225.822 211.445 225.653C211.212 225.473 210.905 225.33 210.524 225.224C210.143 225.108 209.72 225.002 209.254 224.907C208.799 224.801 208.339 224.674 207.873 224.526C207.418 224.378 207 224.187 206.619 223.954C206.238 223.722 205.926 223.415 205.683 223.034C205.45 222.653 205.334 222.166 205.334 221.573C205.334 220.939 205.503 220.362 205.842 219.843C206.191 219.314 206.709 218.896 207.397 218.589C208.095 218.272 208.968 218.113 210.016 218.113C210.714 218.113 211.402 218.198 212.079 218.367C212.757 218.526 213.355 218.769 213.873 219.097L213.079 221.05C212.561 220.753 212.042 220.536 211.524 220.399C211.005 220.251 210.497 220.177 210 220.177C209.503 220.177 209.095 220.235 208.778 220.351C208.46 220.468 208.233 220.621 208.095 220.812C207.958 220.991 207.889 221.203 207.889 221.446C207.889 221.732 208.005 221.965 208.238 222.145C208.471 222.314 208.778 222.452 209.159 222.558C209.54 222.663 209.958 222.769 210.413 222.875C210.878 222.981 211.339 223.103 211.794 223.24C212.259 223.378 212.683 223.563 213.064 223.796C213.444 224.028 213.751 224.335 213.984 224.716C214.227 225.097 214.349 225.579 214.349 226.161C214.349 226.785 214.175 227.356 213.825 227.875C213.476 228.393 212.952 228.811 212.254 229.129C211.566 229.446 210.693 229.605 209.635 229.605ZM98.7055 248.414V237.304H103.515C104.51 237.304 105.367 237.468 106.086 237.796C106.806 238.113 107.361 238.574 107.753 239.177C108.144 239.78 108.34 240.499 108.34 241.335C108.34 242.161 108.144 242.875 107.753 243.478C107.361 244.081 106.806 244.547 106.086 244.875C105.367 245.192 104.51 245.351 103.515 245.351H100.134L101.277 244.192V248.414H98.7055ZM101.277 244.478L100.134 243.256H103.372C104.166 243.256 104.758 243.087 105.15 242.748C105.541 242.409 105.737 241.939 105.737 241.335C105.737 240.722 105.541 240.245 105.15 239.907C104.758 239.568 104.166 239.399 103.372 239.399H100.134L101.277 238.177V244.478ZM110.176 248.414V237.304H114.985C115.98 237.304 116.837 237.468 117.557 237.796C118.276 238.113 118.832 238.574 119.223 239.177C119.615 239.78 119.81 240.499 119.81 241.335C119.81 242.161 119.615 242.875 119.223 243.478C118.832 244.071 118.276 244.526 117.557 244.843C116.837 245.161 115.98 245.319 114.985 245.319H111.604L112.747 244.192V248.414H110.176ZM117.239 248.414L114.461 244.383H117.207L120.017 248.414H117.239ZM112.747 244.478L111.604 243.272H114.842C115.636 243.272 116.229 243.102 116.62 242.764C117.012 242.415 117.207 241.939 117.207 241.335C117.207 240.722 117.012 240.245 116.62 239.907C116.229 239.568 115.636 239.399 114.842 239.399H111.604L112.747 238.177V244.478ZM127.244 248.605C126.366 248.605 125.551 248.462 124.8 248.176C124.059 247.891 123.414 247.489 122.864 246.97C122.324 246.452 121.901 245.843 121.594 245.145C121.297 244.446 121.149 243.684 121.149 242.859C121.149 242.034 121.297 241.272 121.594 240.573C121.901 239.875 122.329 239.267 122.879 238.748C123.43 238.23 124.075 237.828 124.816 237.542C125.557 237.256 126.361 237.113 127.228 237.113C128.107 237.113 128.911 237.256 129.641 237.542C130.382 237.828 131.022 238.23 131.562 238.748C132.112 239.267 132.54 239.875 132.847 240.573C133.154 241.261 133.308 242.023 133.308 242.859C133.308 243.684 133.154 244.452 132.847 245.161C132.54 245.859 132.112 246.467 131.562 246.986C131.022 247.494 130.382 247.891 129.641 248.176C128.911 248.462 128.112 248.605 127.244 248.605ZM127.228 246.415C127.726 246.415 128.181 246.33 128.594 246.161C129.017 245.991 129.387 245.748 129.705 245.43C130.022 245.113 130.265 244.737 130.435 244.304C130.615 243.87 130.705 243.388 130.705 242.859C130.705 242.33 130.615 241.849 130.435 241.415C130.265 240.981 130.022 240.605 129.705 240.288C129.398 239.97 129.033 239.727 128.609 239.558C128.186 239.388 127.726 239.304 127.228 239.304C126.731 239.304 126.271 239.388 125.848 239.558C125.435 239.727 125.07 239.97 124.752 240.288C124.435 240.605 124.186 240.981 124.006 241.415C123.837 241.849 123.752 242.33 123.752 242.859C123.752 243.378 123.837 243.859 124.006 244.304C124.186 244.737 124.43 245.113 124.737 245.43C125.054 245.748 125.424 245.991 125.848 246.161C126.271 246.33 126.731 246.415 127.228 246.415ZM135.24 248.414V237.304H140.288C141.494 237.304 142.557 237.537 143.478 238.002C144.399 238.457 145.118 239.097 145.637 239.923C146.155 240.748 146.414 241.727 146.414 242.859C146.414 243.981 146.155 244.96 145.637 245.796C145.118 246.621 144.399 247.266 143.478 247.732C142.557 248.187 141.494 248.414 140.288 248.414H135.24ZM137.811 246.303H140.161C140.901 246.303 141.542 246.166 142.081 245.891C142.631 245.605 143.055 245.203 143.351 244.684C143.658 244.166 143.811 243.558 143.811 242.859C143.811 242.15 143.658 241.542 143.351 241.034C143.055 240.515 142.631 240.118 142.081 239.843C141.542 239.558 140.901 239.415 140.161 239.415H137.811V246.303ZM153.29 248.605C151.713 248.605 150.48 248.166 149.592 247.288C148.703 246.409 148.258 245.155 148.258 243.526V237.304H150.83V243.431C150.83 244.489 151.047 245.251 151.48 245.716C151.914 246.182 152.523 246.415 153.306 246.415C154.089 246.415 154.697 246.182 155.131 245.716C155.565 245.251 155.782 244.489 155.782 243.431V237.304H158.321V243.526C158.321 245.155 157.877 246.409 156.988 247.288C156.099 248.166 154.867 248.605 153.29 248.605ZM162.978 248.414V239.399H159.422V237.304H169.105V239.399H165.549V248.414H162.978ZM175.73 248.605C174.852 248.605 174.037 248.462 173.286 248.176C172.545 247.891 171.899 247.489 171.349 246.97C170.809 246.452 170.386 245.843 170.079 245.145C169.783 244.446 169.635 243.684 169.635 242.859C169.635 242.034 169.783 241.272 170.079 240.573C170.386 239.875 170.815 239.267 171.365 238.748C171.915 238.23 172.561 237.828 173.301 237.542C174.042 237.256 174.846 237.113 175.714 237.113C176.592 237.113 177.397 237.256 178.127 237.542C178.867 237.828 179.508 238.23 180.047 238.748C180.597 239.267 181.026 239.875 181.333 240.573C181.64 241.261 181.793 242.023 181.793 242.859C181.793 243.684 181.64 244.452 181.333 245.161C181.026 245.859 180.597 246.467 180.047 246.986C179.508 247.494 178.867 247.891 178.127 248.176C177.397 248.462 176.598 248.605 175.73 248.605ZM175.714 246.415C176.211 246.415 176.666 246.33 177.079 246.161C177.502 245.991 177.873 245.748 178.19 245.43C178.508 245.113 178.751 244.737 178.92 244.304C179.1 243.87 179.19 243.388 179.19 242.859C179.19 242.33 179.1 241.849 178.92 241.415C178.751 240.981 178.508 240.605 178.19 240.288C177.883 239.97 177.518 239.727 177.095 239.558C176.672 239.388 176.211 239.304 175.714 239.304C175.217 239.304 174.756 239.388 174.333 239.558C173.92 239.727 173.555 239.97 173.238 240.288C172.92 240.605 172.672 240.981 172.492 241.415C172.323 241.849 172.238 242.33 172.238 242.859C172.238 243.378 172.323 243.859 172.492 244.304C172.672 244.737 172.915 245.113 173.222 245.43C173.539 245.748 173.91 245.991 174.333 246.161C174.756 246.33 175.217 246.415 175.714 246.415ZM187.376 248.605C186.487 248.605 185.636 248.489 184.821 248.256C184.006 248.012 183.35 247.7 182.853 247.319L183.726 245.383C184.202 245.721 184.763 246.002 185.408 246.224C186.064 246.436 186.726 246.542 187.392 246.542C187.9 246.542 188.308 246.494 188.614 246.399C188.932 246.293 189.165 246.15 189.313 245.97C189.461 245.79 189.535 245.584 189.535 245.351C189.535 245.055 189.419 244.822 189.186 244.653C188.953 244.473 188.646 244.33 188.265 244.224C187.884 244.108 187.461 244.002 186.995 243.907C186.54 243.801 186.08 243.674 185.614 243.526C185.159 243.378 184.741 243.187 184.361 242.954C183.98 242.722 183.667 242.415 183.424 242.034C183.191 241.653 183.075 241.166 183.075 240.573C183.075 239.939 183.244 239.362 183.583 238.843C183.932 238.314 184.45 237.896 185.138 237.589C185.837 237.272 186.71 237.113 187.757 237.113C188.456 237.113 189.143 237.198 189.821 237.367C190.498 237.526 191.096 237.769 191.614 238.097L190.821 240.05C190.302 239.753 189.784 239.536 189.265 239.399C188.747 239.251 188.239 239.177 187.741 239.177C187.244 239.177 186.837 239.235 186.519 239.351C186.202 239.468 185.974 239.621 185.837 239.812C185.699 239.991 185.63 240.203 185.63 240.446C185.63 240.732 185.747 240.965 185.98 241.145C186.212 241.314 186.519 241.452 186.9 241.558C187.281 241.663 187.699 241.769 188.154 241.875C188.62 241.981 189.08 242.103 189.535 242.24C190.001 242.378 190.424 242.563 190.805 242.796C191.186 243.028 191.493 243.335 191.725 243.716C191.969 244.097 192.09 244.579 192.09 245.161C192.09 245.785 191.916 246.356 191.567 246.875C191.217 247.393 190.694 247.811 189.995 248.129C189.307 248.446 188.434 248.605 187.376 248.605Z" fill="#38077C"/>
<path d="M150.007 135.199C150.754 137.64 151.875 151.72 152.435 166.74C152.996 181.76 154.303 195.09 155.237 196.216C156.545 197.906 163.83 198.657 179.335 198.657C204.553 198.657 207.168 197.343 207.168 185.515C207.168 179.319 208.102 177.817 213.52 174.626C223.233 168.805 226.783 162.422 224.167 155.663C221.926 150.406 215.388 146.088 209.597 146.088C207.168 146.088 206.982 144.586 207.916 138.578L209.036 131.068H178.961H148.886L150.007 135.199ZM218.003 153.973C221.365 157.353 220.618 161.859 216.135 166.177C207.729 173.687 207.168 173.311 207.168 162.234C207.168 152.471 207.542 151.72 211.465 151.72C213.893 151.72 216.695 152.659 218.003 153.973Z" fill="#6B7AE5"/>
<path d="M75.3174 87.3052C75.2544 87.4832 74.4505 87.9109 73.5194 88.199C72.5632 88.5254 71.7528 88.9213 71.7215 89.0929C71.6522 89.2392 70.7785 89.648 69.7588 89.9872C68.7392 90.3264 67.9224 90.6905 67.9481 90.8175C67.9801 90.9763 67.1634 91.3404 66.1437 91.6796C65.1241 92.0188 64.3138 92.4147 64.3394 92.5417C64.3715 92.7005 63.5611 93.0964 62.5415 93.4356C61.5219 93.7748 60.7051 94.1389 60.7372 94.2977C60.7628 94.4247 59.9841 94.8142 59.0279 95.1405C58.0399 95.4733 57.1662 95.882 57.1032 96.0601C57.0403 96.2382 56.1983 96.6405 55.2356 96.9351C54.2412 97.2361 53.4878 97.5874 53.5134 97.7144C53.5391 97.8414 53.0772 98.1666 52.4693 98.4222C50.3037 99.2915 50.2853 99.5267 51.9722 108.044C53.2675 114.459 53.581 115.685 54.1591 116.261C54.5721 116.674 55.143 116.888 55.5864 116.798C55.9982 116.715 56.3723 116.771 56.4108 116.962C56.4493 117.152 58.4452 116.912 61.3341 116.359L66.168 115.477L71.0404 139.117C75.1886 159.333 75.9766 162.909 76.5616 163.683C76.924 164.171 77.2611 164.698 77.2932 164.857C77.492 165.841 79.2153 165.557 102.592 160.813C117.954 157.694 125.949 155.972 125.904 155.75C125.865 155.56 126.062 155.388 126.315 155.336C126.568 155.285 126.758 155.081 126.72 154.89C126.681 154.7 126.781 154.051 126.925 153.46C127.164 152.519 126.503 148.918 122.481 128.676L117.799 104.997L122.372 103.97C124.868 103.43 127.047 102.79 127.173 102.599C127.325 102.37 127.743 102.152 128.123 102.075C128.503 101.998 128.971 101.54 129.166 101.037C129.475 100.28 129.288 99.0287 127.993 92.6139C126.243 84.1094 126.134 83.8999 123.802 83.9436C123.143 83.9451 122.591 83.8257 122.559 83.6669C122.527 83.5081 122.09 83.4647 121.583 83.5675C121.076 83.6704 120.221 83.6788 119.675 83.5911C119.162 83.497 117.818 83.3731 116.728 83.363C114.737 83.3041 112.506 83.195 108.741 83.0005C107.644 82.9587 106.053 82.9179 105.197 82.9263C104.342 82.9347 103.372 82.8671 103.023 82.7726C102.674 82.6781 101.546 82.6426 100.545 82.7467C99.5057 82.8254 98.5674 82.7513 98.4404 82.6118C98.11 82.2822 75.4938 86.8726 75.3174 87.3052ZM96.9382 90.6855C97.1306 91.6382 97.0937 92.049 97.0357 92.393C96.9794 92.7268 96.9473 92.8925 96.7529 93.4422C96.5168 94.11 96.4353 94.3886 96.2567 94.6587C96.1619 94.8018 96.0206 95.0154 95.8777 95.2315C95.6883 95.5178 95.6417 95.5882 95.4988 95.8042C95.404 95.9474 95.2628 96.161 95.1198 96.377C94.9304 96.6634 94.9304 96.6634 94.7409 96.9498C94.598 97.1659 94.5049 97.3066 94.362 97.5226C94.1725 97.809 94.1259 97.8794 93.983 98.0954C93.7936 98.3818 93.7936 98.3818 93.5977 98.6365C93.4398 98.8417 93.1456 99.0516 92.7059 99.4456C92.1335 99.9585 90.875 100.462 90.0435 100.631C89.3308 100.775 87.9382 100.687 87.6905 100.612C87.164 100.455 87.4288 100.541 86.644 100.329C85.6144 100.05 85.5976 100.045 85.3119 99.8554C85.0964 99.7121 85.0262 99.6655 84.7406 99.4755C84.3635 99.2248 84.1693 99.0956 83.8836 98.9056C83.6707 98.764 83.3608 98.4549 83.1454 98.3116C83.0026 98.2167 82.7895 98.075 82.5741 97.9317C82.2884 97.7418 82.186 97.7347 82.0028 97.5518C81.6931 97.2428 81.6896 97.2375 81.3352 96.6955C80.9774 96.1483 80.8106 95.9342 80.6293 95.6487C80.4423 95.3543 80.0259 95.11 79.8335 94.1573L79.5513 92.76L88.1037 91.0241L96.656 89.2882L96.9382 90.6855Z" fill="#6B7AE5"/>
<rect x="145.618" y="54.6449" width="66.9848" height="51.1042" rx="4.1984" stroke="#6B7AE5" stroke-width="7.85507"/>
<rect x="147.95" y="76.8622" width="60.6884" height="6.93639" fill="#6B7AE5"/>
<rect x="168.089" y="102.207" width="43.7526" height="7.07577" transform="rotate(-90 168.089 102.207)" fill="#6B7AE5"/>
<rect width="18.9308" height="7.00643" transform="matrix(0.714105 -0.700038 0.714105 0.700038 157.156 89.6119)" fill="#6B7AE5"/>
<rect width="18.9308" height="7.00643" transform="matrix(-0.714105 -0.700038 -0.714105 0.700038 186.563 89.6119)" fill="#6B7AE5"/>
<path d="M159.788 78.863V78.863C155.092 72.0193 163.679 63.7763 170.402 68.7253V68.7253" stroke="#6B7AE5" stroke-width="5.41729"/>
<path d="M183.771 78.7297V78.7297C188.468 71.886 179.88 63.6429 173.157 68.5919V68.5919" stroke="#6B7AE5" stroke-width="5.41729"/>
</svg>
