<svg width="290" height="293" viewBox="0 0 290 293" fill="none" xmlns="http://www.w3.org/2000/svg">
<path d="M7.23761 38.2335C7.23761 21.0504 21.1377 7.14362 38.2557 7.14362H251.334C268.452 7.14362 282.352 21.0504 282.352 38.2335V254.766C282.352 271.949 268.452 285.856 251.334 285.856H93.3777C45.8167 285.856 7.23761 247.224 7.23761 199.54V38.2335Z" fill="white" stroke="#6B7AE5" stroke-width="14.2872"/>
<path d="M73.6369 54.9846C72.7586 54.9846 71.9491 54.847 71.2084 54.5719C70.4783 54.2862 69.8381 53.8841 69.2878 53.3656C68.7482 52.8471 68.3249 52.2386 68.018 51.5402C67.7218 50.8418 67.5736 50.0747 67.5736 49.2387C67.5736 48.4028 67.7218 47.6356 68.018 46.9372C68.3249 46.2388 68.7535 45.6304 69.3037 45.1119C69.854 44.5934 70.4994 44.1966 71.2402 43.9214C71.9809 43.6357 72.7957 43.4929 73.6845 43.4929C74.6686 43.4929 75.5522 43.6569 76.3352 43.9849C77.1289 44.313 77.7955 44.7891 78.3352 45.4134L76.6844 46.9372C76.2823 46.5139 75.8432 46.2018 75.367 46.0007C74.8908 45.7891 74.3723 45.6833 73.8115 45.6833C73.2718 45.6833 72.7798 45.7679 72.3354 45.9372C71.8909 46.1065 71.5047 46.3499 71.1767 46.6674C70.8592 46.9848 70.6106 47.3605 70.4307 47.7943C70.2614 48.2282 70.1767 48.7096 70.1767 49.2387C70.1767 49.7572 70.2614 50.2334 70.4307 50.6672C70.6106 51.1011 70.8592 51.482 71.1767 51.8101C71.5047 52.1275 71.8856 52.3709 72.3195 52.5402C72.7639 52.7095 73.2507 52.7942 73.7798 52.7942C74.2877 52.7942 74.7797 52.7148 75.2559 52.5561C75.7427 52.3868 76.2135 52.1064 76.6686 51.7148L78.1288 53.5719C77.5257 54.0269 76.822 54.3761 76.0178 54.6195C75.2242 54.8629 74.4305 54.9846 73.6369 54.9846ZM75.7797 53.2386V49.0641H78.1288V53.5719L75.7797 53.2386ZM79.0571 54.7941L84.0093 43.6833H86.5489L91.517 54.7941H88.8187L84.7554 44.9849H85.7712L81.692 54.7941H79.0571ZM81.5332 52.4132L82.2158 50.4609H87.9299L88.6282 52.4132H81.5332ZM92.6698 54.7941V43.6833H94.7967L101.352 51.6831H100.32V43.6833H102.86V54.7941H100.749L94.1777 46.7944H95.2094V54.7941H92.6698ZM113.107 43.6833H115.679V54.7941H113.107V43.6833ZM108.06 54.7941H105.489V43.6833H108.06V54.7941ZM113.298 50.2387H107.87V48.0642H113.298V50.2387ZM120.673 48.1594H126.022V50.1593H120.673V48.1594ZM120.863 52.7307H126.91V54.7941H118.308V43.6833H126.704V45.7468H120.863V52.7307ZM133.452 54.7941V43.6833H138.261C139.256 43.6833 140.113 43.8474 140.832 44.1754C141.552 44.4928 142.107 44.9531 142.499 45.5563C142.89 46.1595 143.086 46.879 143.086 47.715C143.086 48.5403 142.89 49.2546 142.499 49.8577C142.107 50.4503 141.552 50.9053 140.832 51.2228C140.113 51.5402 139.256 51.699 138.261 51.699H134.88L136.023 50.572V54.7941H133.452ZM140.515 54.7941L137.737 50.7625H140.483L143.293 54.7941H140.515ZM136.023 50.8577L134.88 49.6514H138.118C138.912 49.6514 139.504 49.4821 139.896 49.1435C140.287 48.7943 140.483 48.3181 140.483 47.715C140.483 47.1012 140.287 46.625 139.896 46.2864C139.504 45.9478 138.912 45.7785 138.118 45.7785H134.88L136.023 44.5563V50.8577ZM150.06 54.9846C148.483 54.9846 147.25 54.5454 146.361 53.6672C145.473 52.7889 145.028 51.5349 145.028 49.9054V43.6833H147.6V49.8101C147.6 50.8683 147.816 51.6302 148.25 52.0958C148.684 52.5614 149.293 52.7942 150.076 52.7942C150.859 52.7942 151.467 52.5614 151.901 52.0958C152.335 51.6302 152.552 50.8683 152.552 49.8101V43.6833H155.091V49.9054C155.091 51.5349 154.647 52.7889 153.758 53.6672C152.869 54.5454 151.636 54.9846 150.06 54.9846ZM157.632 54.7941V43.6833H163.061C164.458 43.6833 165.505 43.9479 166.203 44.477C166.912 45.0061 167.267 45.7044 167.267 46.5721C167.267 47.1541 167.124 47.6621 166.838 48.0959C166.553 48.5192 166.161 48.8472 165.664 49.08C165.166 49.3128 164.595 49.4292 163.95 49.4292L164.251 48.7784C164.95 48.7784 165.569 48.8948 166.108 49.1276C166.648 49.3498 167.066 49.6832 167.362 50.1276C167.669 50.572 167.822 51.117 167.822 51.7624C167.822 52.7148 167.447 53.4608 166.696 54.0005C165.944 54.5296 164.838 54.7941 163.378 54.7941H157.632ZM160.188 52.8577H163.188C163.854 52.8577 164.357 52.7518 164.696 52.5402C165.045 52.318 165.219 51.9688 165.219 51.4926C165.219 51.027 165.045 50.6831 164.696 50.4609C164.357 50.2281 163.854 50.1117 163.188 50.1117H159.997V48.2388H162.743C163.368 48.2388 163.844 48.1329 164.172 47.9213C164.51 47.6991 164.68 47.3658 164.68 46.9213C164.68 46.4875 164.51 46.1647 164.172 45.9531C163.844 45.7309 163.368 45.6198 162.743 45.6198H160.188V52.8577ZM175.087 54.9846C174.229 54.9846 173.43 54.847 172.69 54.5719C171.96 54.2862 171.325 53.8841 170.785 53.3656C170.245 52.8471 169.822 52.2386 169.515 51.5402C169.219 50.8418 169.071 50.0747 169.071 49.2387C169.071 48.4028 169.219 47.6356 169.515 46.9372C169.822 46.2388 170.245 45.6304 170.785 45.1119C171.335 44.5934 171.976 44.1966 172.706 43.9214C173.436 43.6357 174.235 43.4929 175.102 43.4929C176.065 43.4929 176.933 43.6622 177.705 44.0008C178.489 44.3288 179.145 44.8156 179.674 45.4611L178.023 46.9848C177.642 46.551 177.219 46.2282 176.753 46.0166C176.288 45.7944 175.78 45.6833 175.229 45.6833C174.711 45.6833 174.235 45.7679 173.801 45.9372C173.367 46.1065 172.991 46.3499 172.674 46.6674C172.356 46.9848 172.108 47.3605 171.928 47.7943C171.759 48.2282 171.674 48.7096 171.674 49.2387C171.674 49.7678 171.759 50.2493 171.928 50.6831C172.108 51.117 172.356 51.4926 172.674 51.8101C172.991 52.1275 173.367 52.3709 173.801 52.5402C174.235 52.7095 174.711 52.7942 175.229 52.7942C175.78 52.7942 176.288 52.6883 176.753 52.4767C177.219 52.2545 177.642 51.9212 178.023 51.4767L179.674 53.0005C179.145 53.646 178.489 54.138 177.705 54.4766C176.933 54.8153 176.06 54.9846 175.087 54.9846ZM186.574 54.9846C185.696 54.9846 184.881 54.8417 184.13 54.556C183.389 54.2703 182.744 53.8682 182.193 53.3497C181.654 52.8312 181.23 52.2228 180.924 51.5244C180.627 50.826 180.479 50.0641 180.479 49.2387C180.479 48.4134 180.627 47.6515 180.924 46.9531C181.23 46.2547 181.659 45.6462 182.209 45.1277C182.76 44.6092 183.405 44.2071 184.146 43.9214C184.886 43.6357 185.691 43.4929 186.558 43.4929C187.437 43.4929 188.241 43.6357 188.971 43.9214C189.712 44.2071 190.352 44.6092 190.892 45.1277C191.442 45.6462 191.87 46.2547 192.177 46.9531C192.484 47.6409 192.638 48.4028 192.638 49.2387C192.638 50.0641 192.484 50.8313 192.177 51.5402C191.87 52.2386 191.442 52.8471 190.892 53.3656C190.352 53.8735 189.712 54.2703 188.971 54.556C188.241 54.8417 187.442 54.9846 186.574 54.9846ZM186.558 52.7942C187.056 52.7942 187.511 52.7095 187.923 52.5402C188.347 52.3709 188.717 52.1275 189.034 51.8101C189.352 51.4926 189.595 51.117 189.765 50.6831C189.944 50.2493 190.034 49.7678 190.034 49.2387C190.034 48.7096 189.944 48.2282 189.765 47.7943C189.595 47.3605 189.352 46.9848 189.034 46.6674C188.728 46.3499 188.363 46.1065 187.939 45.9372C187.516 45.7679 187.056 45.6833 186.558 45.6833C186.061 45.6833 185.601 45.7679 185.177 45.9372C184.765 46.1065 184.4 46.3499 184.082 46.6674C183.765 46.9848 183.516 47.3605 183.336 47.7943C183.167 48.2282 183.082 48.7096 183.082 49.2387C183.082 49.7572 183.167 50.2387 183.336 50.6831C183.516 51.117 183.76 51.4926 184.066 51.8101C184.384 52.1275 184.754 52.3709 185.177 52.5402C185.601 52.7095 186.061 52.7942 186.558 52.7942ZM194.57 54.7941V43.6833H197.141V54.7941H194.57ZM199.778 54.7941V43.6833H201.905L208.46 51.6831H207.429V43.6833H209.968V54.7941H207.857L201.286 46.7944H202.318V54.7941H199.778ZM216.248 54.9846C215.359 54.9846 214.507 54.8682 213.692 54.6354C212.877 54.392 212.221 54.0798 211.724 53.6989L212.597 51.7624C213.073 52.1011 213.634 52.3815 214.28 52.6037C214.936 52.8153 215.597 52.9211 216.264 52.9211C216.772 52.9211 217.179 52.8735 217.486 52.7783C217.803 52.6725 218.036 52.5296 218.184 52.3497C218.332 52.1698 218.406 51.9635 218.406 51.7307C218.406 51.4344 218.29 51.2016 218.057 51.0323C217.824 50.8524 217.518 50.7096 217.137 50.6038C216.756 50.4874 216.332 50.3815 215.867 50.2863C215.412 50.1805 214.952 50.0535 214.486 49.9054C214.031 49.7572 213.613 49.5668 213.232 49.334C212.851 49.1012 212.539 48.7943 212.296 48.4134C212.063 48.0324 211.946 47.5457 211.946 46.9531C211.946 46.3182 212.116 45.7415 212.454 45.223C212.803 44.6939 213.322 44.2759 214.01 43.9691C214.708 43.6516 215.581 43.4929 216.629 43.4929C217.327 43.4929 218.015 43.5775 218.692 43.7468C219.369 43.9056 219.967 44.1489 220.486 44.477L219.692 46.4293C219.174 46.133 218.655 45.9161 218.137 45.7785C217.618 45.6304 217.11 45.5563 216.613 45.5563C216.115 45.5563 215.708 45.6145 215.391 45.7309C215.073 45.8473 214.846 46.0007 214.708 46.1912C214.571 46.3711 214.502 46.5827 214.502 46.8261C214.502 47.1118 214.618 47.3446 214.851 47.5245C215.084 47.6938 215.391 47.8314 215.772 47.9372C216.153 48.043 216.57 48.1488 217.026 48.2546C217.491 48.3604 217.951 48.4821 218.406 48.6197C218.872 48.7573 219.295 48.9424 219.676 49.1752C220.057 49.408 220.364 49.7149 220.597 50.0958C220.84 50.4768 220.962 50.9582 220.962 51.5402C220.962 52.1646 220.787 52.736 220.438 53.2545C220.089 53.773 219.565 54.1909 218.867 54.5084C218.179 54.8258 217.306 54.9846 216.248 54.9846Z" fill="#38077C"/>
<path fill-rule="evenodd" clip-rule="evenodd" d="M144.518 199.681C174.544 199.681 198.885 175.82 198.885 146.386C198.885 116.951 174.544 93.0898 144.518 93.0898C114.492 93.0898 90.1514 116.951 90.1514 146.386C90.1514 175.82 114.492 199.681 144.518 199.681ZM117.505 161.366C118.351 162.212 119.578 162.635 121.186 162.635C122.751 162.635 123.936 162.212 124.74 161.366C125.586 160.52 126.009 159.314 126.009 157.749V145.945C126.009 143.703 126.58 141.989 127.722 140.805C128.907 139.62 130.705 138.922 133.116 138.711L134.576 138.584C136.014 138.414 137.03 137.949 137.622 137.187C138.257 136.426 138.532 135.389 138.447 134.078C138.405 132.682 138.087 131.688 137.495 131.095C136.945 130.461 136.141 130.186 135.084 130.27C132.334 130.439 130.091 131.222 128.357 132.618C127.151 133.589 126.241 134.836 125.628 136.36V135.22C125.628 133.655 125.226 132.47 124.422 131.666C123.618 130.82 122.455 130.397 120.932 130.397C119.451 130.397 118.288 130.82 117.442 131.666C116.638 132.47 116.236 133.655 116.236 135.22V157.749C116.236 159.314 116.659 160.52 117.505 161.366ZM156.286 168.791C157.006 169.552 157.894 169.933 158.952 169.933C160.094 169.933 161.004 169.552 161.681 168.791C162.4 168.072 162.759 167.162 162.759 166.062V162.381C163.611 162.264 164.458 162.095 165.298 161.874C166.906 161.451 168.323 160.901 169.55 160.224C170.354 159.801 170.925 159.251 171.263 158.574C171.644 157.854 171.792 157.135 171.707 156.416C171.665 155.655 171.432 154.978 171.009 154.385C170.629 153.793 170.079 153.412 169.359 153.243C168.682 153.031 167.857 153.137 166.884 153.56C165.869 154.068 164.875 154.428 163.902 154.639C162.971 154.851 162.104 154.956 161.3 154.956C158.761 154.956 156.794 154.153 155.398 152.545C154.044 150.895 153.367 148.822 153.367 146.326C153.367 145.099 153.537 143.978 153.875 142.962C154.256 141.905 154.785 140.995 155.461 140.234C156.138 139.472 156.963 138.901 157.936 138.52C158.952 138.097 160.094 137.886 161.363 137.886C162.294 137.886 163.246 138.012 164.219 138.266C165.192 138.478 166.081 138.816 166.884 139.282C167.731 139.662 168.492 139.768 169.169 139.599C169.888 139.43 170.481 139.07 170.946 138.52C171.411 137.928 171.686 137.272 171.771 136.553C171.898 135.834 171.813 135.136 171.517 134.459C171.221 133.782 170.692 133.232 169.931 132.809C168.619 132.089 167.138 131.539 165.488 131.159C164.579 130.949 163.669 130.79 162.759 130.683V126.653C162.759 125.511 162.4 124.58 161.681 123.861C161.004 123.141 160.094 122.782 158.952 122.782C157.894 122.782 157.006 123.141 156.286 123.861C155.567 124.58 155.208 125.511 155.208 126.653V131.247C153.828 131.611 152.537 132.131 151.337 132.809C149.729 133.739 148.333 134.903 147.148 136.299C146.006 137.653 145.117 139.197 144.483 140.932C143.89 142.666 143.594 144.528 143.594 146.516C143.594 149.266 144.123 151.762 145.181 154.005C146.239 156.205 147.762 158.024 149.75 159.462C151.339 160.612 153.159 161.451 155.208 161.979V166.062C155.208 167.162 155.567 168.072 156.286 168.791Z" fill="#6B7AE5"/>
</svg>
