<svg width="283" height="293" viewBox="0 0 283 293" fill="none" xmlns="http://www.w3.org/2000/svg">
<path d="M7.14362 38.2335C7.14362 20.8869 20.7978 7.14362 37.2529 7.14362H245.258C261.713 7.14362 275.367 20.8869 275.367 38.2335V199.54C275.367 247.388 237.622 285.856 191.449 285.856H37.2529C20.7979 285.856 7.14362 272.113 7.14362 254.766V38.2335Z" fill="white" stroke="#6B7AE5" stroke-width="14.2872"/>
<path d="M67.933 45.7466C67.0442 45.7466 66.1924 45.6302 65.3776 45.3974C64.5628 45.154 63.9067 44.8419 63.4094 44.4609L64.2824 42.5245C64.7585 42.8631 65.3194 43.1435 65.9649 43.3657C66.6209 43.5774 67.2823 43.6832 67.9489 43.6832C68.4568 43.6832 68.8642 43.6356 69.1711 43.5403C69.4885 43.4345 69.7213 43.2917 69.8695 43.1118C70.0176 42.9319 70.0917 42.7256 70.0917 42.4928C70.0917 42.1965 69.9753 41.9637 69.7425 41.7944C69.5097 41.6145 69.2028 41.4716 68.8219 41.3658C68.441 41.2494 68.0177 41.1436 67.5521 41.0484C67.0971 40.9425 66.6368 40.8156 66.1712 40.6674C65.7162 40.5193 65.2982 40.3288 64.9173 40.096C64.5363 39.8632 64.2242 39.5563 63.9808 39.1754C63.748 38.7945 63.6316 38.3077 63.6316 37.7151C63.6316 37.0802 63.8009 36.5035 64.1395 35.985C64.4887 35.4559 65.0072 35.038 65.695 34.7311C66.3934 34.4137 67.2664 34.2549 68.314 34.2549C69.0124 34.2549 69.7002 34.3396 70.3774 34.5089C71.0546 34.6676 71.6525 34.911 72.171 35.239L71.3774 37.1913C70.8589 36.8951 70.3404 36.6781 69.8219 36.5406C69.3034 36.3924 68.7955 36.3184 68.2981 36.3184C67.8008 36.3184 67.3934 36.3766 67.0759 36.493C66.7585 36.6094 66.531 36.7628 66.3934 36.9533C66.2558 37.1331 66.1871 37.3448 66.1871 37.5882C66.1871 37.8739 66.3035 38.1067 66.5363 38.2865C66.7691 38.4559 67.0759 38.5934 67.4569 38.6992C67.8378 38.805 68.2558 38.9109 68.7108 39.0167C69.1764 39.1225 69.6367 39.2442 70.0917 39.3817C70.5573 39.5193 70.9806 39.7045 71.3615 39.9373C71.7424 40.1701 72.0493 40.477 72.2821 40.8579C72.5255 41.2388 72.6472 41.7203 72.6472 42.3023C72.6472 42.9266 72.4726 43.498 72.1234 44.0165C71.7742 44.535 71.2504 44.953 70.552 45.2704C69.8642 45.5879 68.9912 45.7466 67.933 45.7466ZM76.7692 38.9214H82.1182V40.9214H76.7692V38.9214ZM76.9597 43.4927H83.0071V45.5562H74.4042V34.4454H82.8007V36.5088H76.9597V43.4927ZM94.8655 45.7466C94.0083 45.7466 93.2094 45.6091 92.4687 45.3339C91.7386 45.0482 91.1037 44.6461 90.564 44.1276C90.0243 43.6091 89.6011 43.0007 89.2942 42.3023C88.9979 41.6039 88.8498 40.8367 88.8498 40.0008C88.8498 39.1648 88.9979 38.3977 89.2942 37.6993C89.6011 37.0009 90.0243 36.3924 90.564 35.8739C91.1143 35.3554 91.7544 34.9586 92.4846 34.6835C93.2147 34.3978 94.0136 34.2549 94.8813 34.2549C95.8443 34.2549 96.712 34.4242 97.4844 34.7629C98.2675 35.0909 98.9235 35.5776 99.4526 36.2231L97.8019 37.7469C97.4209 37.313 96.9977 36.9903 96.5321 36.7787C96.0665 36.5564 95.5586 36.4453 95.0083 36.4453C94.4898 36.4453 94.0136 36.53 93.5798 36.6993C93.1459 36.8686 92.7703 37.112 92.4528 37.4294C92.1354 37.7469 91.8867 38.1225 91.7068 38.5564C91.5375 38.9902 91.4529 39.4717 91.4529 40.0008C91.4529 40.5299 91.5375 41.0113 91.7068 41.4452C91.8867 41.879 92.1354 42.2547 92.4528 42.5721C92.7703 42.8896 93.1459 43.133 93.5798 43.3023C94.0136 43.4716 94.4898 43.5562 95.0083 43.5562C95.5586 43.5562 96.0665 43.4504 96.5321 43.2388C96.9977 43.0166 97.4209 42.6832 97.8019 42.2388L99.4526 43.7626C98.9235 44.408 98.2675 44.9001 97.4844 45.2387C96.712 45.5773 95.839 45.7466 94.8655 45.7466ZM99.5273 45.5562L104.479 34.4454H107.019L111.987 45.5562H109.289L105.225 35.7469H106.241L102.162 45.5562H99.5273ZM102.003 43.1753L102.686 41.223H108.4L109.098 43.1753H102.003ZM113.14 45.5562V34.4454H118.187C119.394 34.4454 120.457 34.6782 121.378 35.1438C122.298 35.5988 123.018 36.239 123.536 37.0644C124.055 37.8897 124.314 38.8685 124.314 40.0008C124.314 41.1224 124.055 42.1012 123.536 42.9372C123.018 43.7626 122.298 44.408 121.378 44.8736C120.457 45.3286 119.394 45.5562 118.187 45.5562H113.14ZM115.711 43.4451H118.06C118.801 43.4451 119.441 43.3075 119.981 43.0324C120.531 42.7467 120.954 42.3446 121.251 41.8261C121.558 41.3076 121.711 40.6992 121.711 40.0008C121.711 39.2918 121.558 38.6834 121.251 38.1754C120.954 37.6569 120.531 37.2601 119.981 36.985C119.441 36.6993 118.801 36.5564 118.06 36.5564H115.711V43.4451ZM124.638 45.5562L129.59 34.4454H132.13L137.098 45.5562H134.4L130.336 35.7469H131.352L127.273 45.5562H124.638ZM127.114 43.1753L127.797 41.223H133.511L134.209 43.1753H127.114ZM141.901 45.7466C141.013 45.7466 140.161 45.6302 139.346 45.3974C138.531 45.154 137.875 44.8419 137.378 44.4609L138.251 42.5245C138.727 42.8631 139.288 43.1435 139.933 43.3657C140.589 43.5774 141.251 43.6832 141.917 43.6832C142.425 43.6832 142.833 43.6356 143.139 43.5403C143.457 43.4345 143.69 43.2917 143.838 43.1118C143.986 42.9319 144.06 42.7256 144.06 42.4928C144.06 42.1965 143.944 41.9637 143.711 41.7944C143.478 41.6145 143.171 41.4716 142.79 41.3658C142.409 41.2494 141.986 41.1436 141.52 41.0484C141.065 40.9425 140.605 40.8156 140.14 40.6674C139.685 40.5193 139.267 40.3288 138.886 40.096C138.505 39.8632 138.193 39.5563 137.949 39.1754C137.716 38.7945 137.6 38.3077 137.6 37.7151C137.6 37.0802 137.769 36.5035 138.108 35.985C138.457 35.4559 138.976 35.038 139.663 34.7311C140.362 34.4137 141.235 34.2549 142.282 34.2549C142.981 34.2549 143.669 34.3396 144.346 34.5089C145.023 34.6676 145.621 34.911 146.139 35.239L145.346 37.1913C144.827 36.8951 144.309 36.6781 143.79 36.5406C143.272 36.3924 142.764 36.3184 142.266 36.3184C141.769 36.3184 141.362 36.3766 141.044 36.493C140.727 36.6094 140.499 36.7628 140.362 36.9533C140.224 37.1331 140.155 37.3448 140.155 37.5882C140.155 37.8739 140.272 38.1067 140.505 38.2865C140.737 38.4559 141.044 38.5934 141.425 38.6992C141.806 38.805 142.224 38.9109 142.679 39.0167C143.145 39.1225 143.605 39.2442 144.06 39.3817C144.526 39.5193 144.949 39.7045 145.33 39.9373C145.711 40.1701 146.018 40.477 146.25 40.8579C146.494 41.2388 146.616 41.7203 146.616 42.3023C146.616 42.9266 146.441 43.498 146.092 44.0165C145.743 44.535 145.219 44.953 144.52 45.2704C143.833 45.5879 142.96 45.7466 141.901 45.7466ZM150.519 45.5562V36.5406H146.964V34.4454H156.646V36.5406H153.09V45.5562H150.519ZM158.029 45.5562V34.4454H162.839C163.833 34.4454 164.69 34.6094 165.41 34.9374C166.13 35.2549 166.685 35.7152 167.077 36.3184C167.468 36.9215 167.664 37.6411 167.664 38.477C167.664 39.3024 167.468 40.0166 167.077 40.6198C166.685 41.2124 166.13 41.6674 165.41 41.9848C164.69 42.3023 163.833 42.461 162.839 42.461H159.458L160.601 41.3341V45.5562H158.029ZM165.093 45.5562L162.315 41.5245H165.061L167.87 45.5562H165.093ZM160.601 41.6198L159.458 40.4135H162.696C163.489 40.4135 164.082 40.2442 164.474 39.9055C164.865 39.5563 165.061 39.0802 165.061 38.477C165.061 37.8633 164.865 37.3871 164.474 37.0485C164.082 36.7099 163.489 36.5406 162.696 36.5406H159.458L160.601 35.3184V41.6198ZM172.066 38.9214H177.415V40.9214H172.066V38.9214ZM172.257 43.4927H178.304V45.5562H169.701V34.4454H178.098V36.5088H172.257V43.4927ZM189.34 45.5562V34.4454H191.467L198.023 42.4451H196.991V34.4454H199.53V45.5562H197.419L190.848 37.5564H191.88V45.5562H189.34ZM207.556 45.7466C206.678 45.7466 205.863 45.6038 205.112 45.3181C204.371 45.0324 203.725 44.6303 203.175 44.1118C202.635 43.5933 202.212 42.9848 201.905 42.2864C201.609 41.588 201.461 40.8261 201.461 40.0008C201.461 39.1754 201.609 38.4135 201.905 37.7151C202.212 37.0167 202.641 36.4083 203.191 35.8898C203.741 35.3713 204.387 34.9692 205.127 34.6835C205.868 34.3978 206.672 34.2549 207.54 34.2549C208.418 34.2549 209.222 34.3978 209.953 34.6835C210.693 34.9692 211.334 35.3713 211.873 35.8898C212.423 36.4083 212.852 37.0167 213.159 37.7151C213.466 38.4029 213.619 39.1648 213.619 40.0008C213.619 40.8261 213.466 41.5933 213.159 42.3023C212.852 43.0007 212.423 43.6091 211.873 44.1276C211.334 44.6355 210.693 45.0324 209.953 45.3181C209.222 45.6038 208.424 45.7466 207.556 45.7466ZM207.54 43.5562C208.037 43.5562 208.492 43.4716 208.905 43.3023C209.328 43.133 209.699 42.8896 210.016 42.5721C210.334 42.2547 210.577 41.879 210.746 41.4452C210.926 41.0113 211.016 40.5299 211.016 40.0008C211.016 39.4717 210.926 38.9902 210.746 38.5564C210.577 38.1225 210.334 37.7469 210.016 37.4294C209.709 37.112 209.344 36.8686 208.921 36.6993C208.498 36.53 208.037 36.4453 207.54 36.4453C207.043 36.4453 206.582 36.53 206.159 36.6993C205.746 36.8686 205.381 37.112 205.064 37.4294C204.746 37.7469 204.498 38.1225 204.318 38.5564C204.149 38.9902 204.064 39.4717 204.064 40.0008C204.064 40.5193 204.149 41.0007 204.318 41.4452C204.498 41.879 204.741 42.2547 205.048 42.5721C205.365 42.8896 205.736 43.133 206.159 43.3023C206.582 43.4716 207.043 43.5562 207.54 43.5562ZM99.577 64.5562V53.4454H104.386C105.381 53.4454 106.238 53.6094 106.958 53.9374C107.677 54.2549 108.233 54.7152 108.624 55.3184C109.016 55.9215 109.212 56.6411 109.212 57.477C109.212 58.3024 109.016 59.0166 108.624 59.6198C108.233 60.2124 107.677 60.6674 106.958 60.9848C106.238 61.3023 105.381 61.461 104.386 61.461H101.006L102.148 60.3341V64.5562H99.577ZM106.64 64.5562L103.863 60.5245H106.609L109.418 64.5562H106.64ZM102.148 60.6198L101.006 59.4135H104.244C105.037 59.4135 105.63 59.2442 106.021 58.9055C106.413 58.5563 106.609 58.0802 106.609 57.477C106.609 56.8633 106.413 56.3871 106.021 56.0485C105.63 55.7099 105.037 55.5406 104.244 55.5406H101.006L102.148 54.3184V60.6198ZM116.185 64.7466C114.609 64.7466 113.376 64.3075 112.487 63.4292C111.598 62.5509 111.154 61.297 111.154 59.6674V53.4454H113.725V59.5722C113.725 60.6304 113.942 61.3922 114.376 61.8578C114.81 62.3234 115.418 62.5562 116.201 62.5562C116.984 62.5562 117.593 62.3234 118.026 61.8578C118.46 61.3922 118.677 60.6304 118.677 59.5722V53.4454H121.217V59.6674C121.217 61.297 120.772 62.5509 119.884 63.4292C118.995 64.3075 117.762 64.7466 116.185 64.7466ZM123.758 64.5562V53.4454H129.186C130.583 53.4454 131.631 53.7099 132.329 54.239C133.038 54.7681 133.392 55.4665 133.392 56.3342C133.392 56.9162 133.25 57.4241 132.964 57.858C132.678 58.2812 132.287 58.6093 131.789 58.8421C131.292 59.0748 130.72 59.1912 130.075 59.1912L130.377 58.5405C131.075 58.5405 131.694 58.6569 132.234 58.8897C132.773 59.1119 133.191 59.4452 133.488 59.8896C133.794 60.3341 133.948 60.879 133.948 61.5245C133.948 62.4769 133.572 63.2229 132.821 63.7625C132.07 64.2916 130.964 64.5562 129.504 64.5562H123.758ZM126.313 62.6197H129.313C129.98 62.6197 130.482 62.5139 130.821 62.3023C131.17 62.08 131.345 61.7308 131.345 61.2547C131.345 60.7891 131.17 60.4452 130.821 60.223C130.482 59.9902 129.98 59.8738 129.313 59.8738H126.123V58.0008H128.869C129.493 58.0008 129.969 57.895 130.297 57.6834C130.636 57.4611 130.805 57.1278 130.805 56.6834C130.805 56.2495 130.636 55.9268 130.297 55.7152C129.969 55.493 129.493 55.3818 128.869 55.3818H126.313V62.6197ZM135.895 64.5562V53.4454H141.323C142.72 53.4454 143.767 53.7099 144.466 54.239C145.175 54.7681 145.529 55.4665 145.529 56.3342C145.529 56.9162 145.386 57.4241 145.101 57.858C144.815 58.2812 144.423 58.6093 143.926 58.8421C143.429 59.0748 142.857 59.1912 142.212 59.1912L142.513 58.5405C143.212 58.5405 143.831 58.6569 144.371 58.8897C144.91 59.1119 145.328 59.4452 145.624 59.8896C145.931 60.3341 146.085 60.879 146.085 61.5245C146.085 62.4769 145.709 63.2229 144.958 63.7625C144.207 64.2916 143.101 64.5562 141.64 64.5562H135.895ZM138.45 62.6197H141.45C142.117 62.6197 142.619 62.5139 142.958 62.3023C143.307 62.08 143.482 61.7308 143.482 61.2547C143.482 60.7891 143.307 60.4452 142.958 60.223C142.619 59.9902 142.117 59.8738 141.45 59.8738H138.26V58.0008H141.006C141.63 58.0008 142.106 57.895 142.434 57.6834C142.773 57.4611 142.942 57.1278 142.942 56.6834C142.942 56.2495 142.773 55.9268 142.434 55.7152C142.106 55.493 141.63 55.3818 141.006 55.3818H138.45V62.6197ZM146.571 64.5562L151.523 53.4454H154.063L159.031 64.5562H156.333L152.269 54.7469H153.285L149.206 64.5562H146.571ZM149.047 62.1753L149.73 60.223H155.444L156.142 62.1753H149.047ZM160.184 64.5562V53.4454H162.311L168.866 61.4451H167.834V53.4454H170.374V64.5562H168.263L161.692 56.5564H162.724V64.5562H160.184ZM175.304 62.0166L175.161 59.0484L180.479 53.4454H183.336L178.542 58.604L177.114 60.1277L175.304 62.0166ZM173.003 64.5562V53.4454H175.558V64.5562H173.003ZM180.606 64.5562L176.653 59.715L178.336 57.8897L183.606 64.5562H180.606Z" fill="#38077C"/>
<path d="M117.397 104.941C115.128 106.08 113.321 108.272 112.733 110.633C112.439 111.729 112.271 117.716 112.271 126.318V140.231L110.296 139.641C106.514 138.461 103.489 139.852 102.648 143.098C102.438 144.026 102.06 147.02 101.808 149.802C101.556 152.585 101.093 155.916 100.715 157.181C99.4547 161.439 96.6394 166.414 93.0257 170.799C87.5212 177.503 87.059 178.684 86.0085 189.014C85.1681 197.109 84.2857 202.126 83.1512 205.626C82.3528 208.198 81.8486 208.83 77.0163 213.805L71.7639 219.16L72.9825 220.425L74.201 221.69L79.4114 216.546C82.3528 213.594 85 210.516 85.5883 209.462C86.9329 206.806 88.1935 201.367 88.9498 194.916C89.286 191.881 89.7902 187.664 90.0423 185.472C90.6306 180.455 91.6811 178.136 95.2527 173.835C98.9504 169.408 100.757 166.625 102.606 162.24C104.623 157.56 105.001 155.916 105.547 149.423C105.758 146.429 106.178 143.731 106.43 143.436C107.943 141.581 111.766 143.984 112.733 147.357C113.447 149.76 113.447 157.982 112.775 161.397C112.187 164.517 112.102 200.903 112.691 203.096C113.279 205.373 115.254 207.902 117.145 208.872C118.573 209.547 120.044 209.715 127.692 209.884L136.6 210.095L135.297 212.329C133.616 215.239 129.835 219.328 127.608 220.636C126.557 221.268 124.624 221.858 122.649 222.111C117.229 222.87 115.674 223.84 111.472 229.026C108.489 232.694 103.026 239.946 103.026 240.241C103.026 240.368 103.657 240.874 104.413 241.422C105.716 242.349 105.758 242.349 106.388 241.59C106.724 241.127 108.825 238.428 111.01 235.561C117.691 226.833 118.069 226.58 124.498 225.526C126.011 225.273 127.86 224.767 128.616 224.388C131.852 222.786 137.65 216.251 139.961 211.655L140.844 209.884H149.794H158.702L160.383 212.54C162.736 216.251 164.459 218.021 167.442 219.919C172.358 223.039 177.821 229.953 181.687 237.964C182.653 240.03 183.535 241.801 183.577 241.843C183.703 242.096 186.603 241.084 186.813 240.705C187.107 240.241 183.031 232.357 180.51 228.562C176.854 223.039 173.913 219.877 170.005 217.263C165.971 214.522 165.551 214.016 157.609 201.662C149.164 188.55 148.407 187.158 148.407 185.345C148.407 184.46 148.701 183.026 149.037 182.183C149.374 181.382 149.668 180.075 149.668 179.358C149.668 178.599 148.071 173.118 146.096 167.173C141.558 153.428 139.121 144.911 139.079 142.888C139.079 140.822 139.751 139.557 141.096 139.219C144.289 138.418 145.718 141.328 152.861 162.62C157.189 175.437 157.315 175.732 158.87 175.732C160.425 175.732 160.803 174.72 160.215 172.486C158.072 164.854 164.543 162.325 168.282 169.324C169.291 171.179 169.669 171.516 170.635 171.516C171.854 171.516 172.232 170.968 172.989 168.143C173.535 166.204 174.921 164.348 175.804 164.348C176.98 164.348 179.207 166.119 180.342 167.932C181.308 169.534 182.947 170.209 183.872 169.45C184.166 169.197 184.754 168.059 185.174 166.962C185.972 164.77 186.939 163.505 187.695 163.505C188.746 163.505 191.981 166.878 193.284 169.281C195.679 173.835 198.452 184.038 200.931 197.657C202.36 205.373 204.083 209.884 206.856 213.046L208.201 214.564L209.209 213.046L210.218 211.571L208.915 209.673C206.73 206.511 205.932 204.066 204.083 194.705C200.217 175.269 197.864 168.27 193.746 163.716C189.964 159.626 186.939 158.867 184.292 161.439C183.535 162.198 182.779 163.168 182.611 163.589C182.401 164.306 182.233 164.264 180.846 163.041C177.022 159.668 172.904 160.048 170.846 163.969C170.509 164.644 170.047 165.107 169.837 164.981C169.585 164.812 169.417 154.651 169.417 138.292C169.417 121.132 169.249 111.308 168.955 110.254C168.408 108.188 166.307 105.827 164.164 104.857C162.61 104.14 160.887 104.056 140.844 104.056C119.666 104.056 119.162 104.056 117.397 104.941ZM128.49 109.115L130.339 110.802H140.844H151.349L153.239 109.073L155.088 107.344L158.66 107.471C162.484 107.64 164.038 108.356 165.089 110.422C165.509 111.181 165.635 117.464 165.635 136.69V161.903L164.333 161.65C162.568 161.313 160.089 162.029 158.534 163.294L157.315 164.348L155.298 158.361C149.122 139.557 146.726 135.509 141.936 135.509C138.196 135.509 135.381 138.503 135.381 142.55C135.381 144.911 137.776 153.47 142.398 167.426C146.138 178.852 146.096 178.768 145.004 183.026C144.205 186.062 144.962 188.592 148.197 193.694C149.71 196.055 150.928 198.078 150.928 198.247C150.928 198.374 145.634 198.5 139.121 198.5C131.81 198.5 127.019 198.669 126.515 198.922C125.633 199.428 125.465 201.03 126.221 201.789C126.599 202.168 130.297 202.295 140.213 202.295H153.66L154.248 203.222C154.584 203.77 155.13 204.614 155.466 205.12L156.055 206.089H137.734H119.414L117.817 204.656L116.262 203.222V182.816C116.262 170.715 116.472 160.554 116.725 157.813C117.061 154.651 117.061 152.332 116.809 150.435C116.557 148.917 116.304 139.683 116.178 129.901C116.01 113.669 116.094 111.94 116.725 110.549C117.733 108.441 120.002 107.471 123.784 107.429C126.557 107.429 126.725 107.471 128.49 109.115Z" fill="#6B7AE5"/>
</svg>
