<svg width="283" height="287" viewBox="0 0 283 287" fill="none" xmlns="http://www.w3.org/2000/svg">
<path d="M7.22247 37.3445C7.22247 20.6482 20.7194 7.14362 37.3317 7.14362H191.528C237.858 7.14362 275.446 44.7988 275.446 91.2865V248.842C275.446 265.538 261.95 279.042 245.337 279.042H37.3317C20.7194 279.042 7.22247 265.538 7.22247 248.842V37.3445Z" fill="white" stroke="#6B7AE5" stroke-width="14.2872"/>
<path d="M48.0798 238.843C47.2015 238.843 46.392 238.705 45.6513 238.43C44.9212 238.144 44.281 237.742 43.7307 237.224C43.1911 236.705 42.7678 236.097 42.4609 235.398C42.1646 234.7 42.0165 233.933 42.0165 233.097C42.0165 232.261 42.1646 231.494 42.4609 230.795C42.7678 230.097 43.1963 229.489 43.7466 228.97C44.2968 228.452 44.9423 228.055 45.683 227.78C46.4238 227.494 47.2385 227.351 48.1274 227.351C49.1115 227.351 49.9951 227.515 50.7781 227.843C51.5717 228.171 52.2384 228.647 52.778 229.272L51.1273 230.795C50.7252 230.372 50.2861 230.06 49.8099 229.859C49.3337 229.647 48.8152 229.541 48.2544 229.541C47.7147 229.541 47.2227 229.626 46.7782 229.795C46.3338 229.965 45.9476 230.208 45.6195 230.526C45.3021 230.843 45.0534 231.219 44.8735 231.652C44.7042 232.086 44.6196 232.568 44.6196 233.097C44.6196 233.615 44.7042 234.092 44.8735 234.525C45.0534 234.959 45.3021 235.34 45.6195 235.668C45.9476 235.986 46.3285 236.229 46.7624 236.398C47.2068 236.568 47.6936 236.652 48.2226 236.652C48.7306 236.652 49.2226 236.573 49.6988 236.414C50.1855 236.245 50.6564 235.965 51.1114 235.573L52.5717 237.43C51.9685 237.885 51.2649 238.234 50.4607 238.478C49.667 238.721 48.8734 238.843 48.0798 238.843ZM50.2226 237.097V232.922H52.5717V237.43L50.2226 237.097ZM53.5 238.652L58.4522 227.541H60.9918L65.9599 238.652H63.2616L59.1982 228.843H60.2141L56.1348 238.652H53.5ZM55.9761 236.271L56.6586 234.319H62.3727L63.0711 236.271H55.9761ZM70.7633 238.843C69.8745 238.843 69.0226 238.726 68.2079 238.494C67.3931 238.25 66.737 237.938 66.2397 237.557L67.1127 235.621C67.5888 235.959 68.1497 236.24 68.7951 236.462C69.4512 236.673 70.1126 236.779 70.7792 236.779C71.2871 236.779 71.6945 236.732 72.0014 236.636C72.3188 236.531 72.5516 236.388 72.6998 236.208C72.8479 236.028 72.922 235.822 72.922 235.589C72.922 235.293 72.8056 235.06 72.5728 234.89C72.34 234.711 72.0331 234.568 71.6522 234.462C71.2712 234.346 70.848 234.24 70.3824 234.144C69.9274 234.039 69.4671 233.912 69.0015 233.764C68.5465 233.615 68.1285 233.425 67.7476 233.192C67.3666 232.959 67.0545 232.652 66.8111 232.272C66.5783 231.891 66.4619 231.404 66.4619 230.811C66.4619 230.176 66.6312 229.6 66.9698 229.081C67.319 228.552 67.8375 228.134 68.5253 227.827C69.2237 227.51 70.0967 227.351 71.1443 227.351C71.8427 227.351 72.5305 227.436 73.2077 227.605C73.8849 227.764 74.4828 228.007 75.0013 228.335L74.2077 230.287C73.6892 229.991 73.1707 229.774 72.6522 229.637C72.1337 229.489 71.6257 229.414 71.1284 229.414C70.6311 229.414 70.2237 229.473 69.9062 229.589C69.5888 229.705 69.3613 229.859 69.2237 230.049C69.0861 230.229 69.0174 230.441 69.0174 230.684C69.0174 230.97 69.1337 231.203 69.3665 231.383C69.5993 231.552 69.9062 231.69 70.2872 231.795C70.6681 231.901 71.0861 232.007 71.5411 232.113C72.0067 232.219 72.467 232.34 72.922 232.478C73.3876 232.615 73.8108 232.801 74.1918 233.033C74.5727 233.266 74.8796 233.573 75.1124 233.954C75.3558 234.335 75.4775 234.816 75.4775 235.398C75.4775 236.023 75.3029 236.594 74.9537 237.113C74.6045 237.631 74.0807 238.049 73.3823 238.367C72.6945 238.684 71.8215 238.843 70.7633 238.843ZM79.381 238.652V229.637H75.8255V227.541H85.5078V229.637H81.9523V238.652H79.381ZM89.2563 232.018H94.6053V234.017H89.2563V232.018ZM89.4468 236.589H95.4942V238.652H86.8913V227.541H95.2878V229.605H89.4468V236.589ZM105.686 238.843C104.797 238.843 103.945 238.726 103.13 238.494C102.316 238.25 101.66 237.938 101.162 237.557L102.035 235.621C102.511 235.959 103.072 236.24 103.718 236.462C104.374 236.673 105.035 236.779 105.702 236.779C106.21 236.779 106.617 236.732 106.924 236.636C107.241 236.531 107.474 236.388 107.622 236.208C107.771 236.028 107.845 235.822 107.845 235.589C107.845 235.293 107.728 235.06 107.495 234.89C107.263 234.711 106.956 234.568 106.575 234.462C106.194 234.346 105.771 234.24 105.305 234.144C104.85 234.039 104.39 233.912 103.924 233.764C103.469 233.615 103.051 233.425 102.67 233.192C102.289 232.959 101.977 232.652 101.734 232.272C101.501 231.891 101.384 231.404 101.384 230.811C101.384 230.176 101.554 229.6 101.892 229.081C102.242 228.552 102.76 228.134 103.448 227.827C104.146 227.51 105.019 227.351 106.067 227.351C106.765 227.351 107.453 227.436 108.13 227.605C108.808 227.764 109.405 228.007 109.924 228.335L109.13 230.287C108.612 229.991 108.093 229.774 107.575 229.637C107.056 229.489 106.548 229.414 106.051 229.414C105.554 229.414 105.146 229.473 104.829 229.589C104.511 229.705 104.284 229.859 104.146 230.049C104.009 230.229 103.94 230.441 103.94 230.684C103.94 230.97 104.056 231.203 104.289 231.383C104.522 231.552 104.829 231.69 105.21 231.795C105.591 231.901 106.009 232.007 106.464 232.113C106.929 232.219 107.39 232.34 107.845 232.478C108.31 232.615 108.733 232.801 109.114 233.033C109.495 233.266 109.802 233.573 110.035 233.954C110.278 234.335 110.4 234.816 110.4 235.398C110.4 236.023 110.225 236.594 109.876 237.113C109.527 237.631 109.003 238.049 108.305 238.367C107.617 238.684 106.744 238.843 105.686 238.843ZM117.093 238.843C115.517 238.843 114.284 238.404 113.395 237.525C112.506 236.647 112.062 235.393 112.062 233.764V227.541H114.633V233.668C114.633 234.726 114.85 235.488 115.284 235.954C115.718 236.42 116.326 236.652 117.109 236.652C117.892 236.652 118.501 236.42 118.935 235.954C119.368 235.488 119.585 234.726 119.585 233.668V227.541H122.125V233.764C122.125 235.393 121.681 236.647 120.792 237.525C119.903 238.404 118.67 238.843 117.093 238.843ZM122.973 238.652L127.925 227.541H130.465L135.433 238.652H132.735L128.671 228.843H129.687L125.608 238.652H122.973ZM125.449 236.271L126.132 234.319H131.846L132.544 236.271H125.449ZM140.237 238.843C139.348 238.843 138.496 238.726 137.681 238.494C136.866 238.25 136.21 237.938 135.713 237.557L136.586 235.621C137.062 235.959 137.623 236.24 138.268 236.462C138.924 236.673 139.586 236.779 140.252 236.779C140.76 236.779 141.168 236.732 141.475 236.636C141.792 236.531 142.025 236.388 142.173 236.208C142.321 236.028 142.395 235.822 142.395 235.589C142.395 235.293 142.279 235.06 142.046 234.89C141.813 234.711 141.506 234.568 141.125 234.462C140.744 234.346 140.321 234.24 139.856 234.144C139.401 234.039 138.94 233.912 138.475 233.764C138.02 233.615 137.602 233.425 137.221 233.192C136.84 232.959 136.528 232.652 136.284 232.272C136.051 231.891 135.935 231.404 135.935 230.811C135.935 230.176 136.104 229.6 136.443 229.081C136.792 228.552 137.311 228.134 137.999 227.827C138.697 227.51 139.57 227.351 140.617 227.351C141.316 227.351 142.004 227.436 142.681 227.605C143.358 227.764 143.956 228.007 144.474 228.335L143.681 230.287C143.162 229.991 142.644 229.774 142.125 229.637C141.607 229.489 141.099 229.414 140.602 229.414C140.104 229.414 139.697 229.473 139.379 229.589C139.062 229.705 138.834 229.859 138.697 230.049C138.559 230.229 138.491 230.441 138.491 230.684C138.491 230.97 138.607 231.203 138.84 231.383C139.073 231.552 139.379 231.69 139.76 231.795C140.141 231.901 140.559 232.007 141.014 232.113C141.48 232.219 141.94 232.34 142.395 232.478C142.861 232.615 143.284 232.801 143.665 233.033C144.046 233.266 144.353 233.573 144.586 233.954C144.829 234.335 144.951 234.816 144.951 235.398C144.951 236.023 144.776 236.594 144.427 237.113C144.078 237.631 143.554 238.049 142.855 238.367C142.168 238.684 141.295 238.843 140.237 238.843ZM151.203 238.652V227.541H156.012C157.007 227.541 157.864 227.706 158.584 228.034C159.303 228.351 159.859 228.811 160.25 229.414C160.642 230.018 160.837 230.737 160.837 231.573C160.837 232.398 160.642 233.113 160.25 233.716C159.859 234.308 159.303 234.763 158.584 235.081C157.864 235.398 157.007 235.557 156.012 235.557H152.631L153.774 234.43V238.652H151.203ZM158.266 238.652L155.488 234.621H158.234L161.044 238.652H158.266ZM153.774 234.716L152.631 233.51H155.869C156.663 233.51 157.256 233.34 157.647 233.002C158.039 232.652 158.234 232.176 158.234 231.573C158.234 230.959 158.039 230.483 157.647 230.145C157.256 229.806 156.663 229.637 155.869 229.637H152.631L153.774 228.414V234.716ZM167.811 238.843C166.234 238.843 165.002 238.404 164.113 237.525C163.224 236.647 162.779 235.393 162.779 233.764V227.541H165.351V233.668C165.351 234.726 165.568 235.488 166.002 235.954C166.435 236.42 167.044 236.652 167.827 236.652C168.61 236.652 169.218 236.42 169.652 235.954C170.086 235.488 170.303 234.726 170.303 233.668V227.541H172.843V233.764C172.843 235.393 172.398 236.647 171.509 237.525C170.62 238.404 169.388 238.843 167.811 238.843ZM175.384 238.652V227.541H180.812C182.209 227.541 183.256 227.806 183.955 228.335C184.664 228.864 185.018 229.563 185.018 230.43C185.018 231.012 184.875 231.52 184.59 231.954C184.304 232.377 183.912 232.705 183.415 232.938C182.918 233.171 182.346 233.287 181.701 233.287L182.002 232.637C182.701 232.637 183.32 232.753 183.859 232.986C184.399 233.208 184.817 233.541 185.113 233.986C185.42 234.43 185.574 234.975 185.574 235.621C185.574 236.573 185.198 237.319 184.447 237.859C183.695 238.388 182.59 238.652 181.129 238.652H175.384ZM177.939 236.716H180.939C181.606 236.716 182.108 236.61 182.447 236.398C182.796 236.176 182.971 235.827 182.971 235.351C182.971 234.885 182.796 234.541 182.447 234.319C182.108 234.086 181.606 233.97 180.939 233.97H177.749V232.097H180.495C181.119 232.097 181.595 231.991 181.923 231.779C182.262 231.557 182.431 231.224 182.431 230.779C182.431 230.346 182.262 230.023 181.923 229.811C181.595 229.589 181.119 229.478 180.495 229.478H177.939V236.716ZM192.838 238.843C191.981 238.843 191.182 238.705 190.441 238.43C189.711 238.144 189.076 237.742 188.536 237.224C187.997 236.705 187.573 236.097 187.267 235.398C186.97 234.7 186.822 233.933 186.822 233.097C186.822 232.261 186.97 231.494 187.267 230.795C187.573 230.097 187.997 229.489 188.536 228.97C189.087 228.452 189.727 228.055 190.457 227.78C191.187 227.494 191.986 227.351 192.854 227.351C193.817 227.351 194.684 227.52 195.457 227.859C196.24 228.187 196.896 228.674 197.425 229.319L195.774 230.843C195.393 230.409 194.97 230.086 194.504 229.875C194.039 229.653 193.531 229.541 192.981 229.541C192.462 229.541 191.986 229.626 191.552 229.795C191.118 229.965 190.743 230.208 190.425 230.526C190.108 230.843 189.859 231.219 189.679 231.652C189.51 232.086 189.425 232.568 189.425 233.097C189.425 233.626 189.51 234.107 189.679 234.541C189.859 234.975 190.108 235.351 190.425 235.668C190.743 235.986 191.118 236.229 191.552 236.398C191.986 236.568 192.462 236.652 192.981 236.652C193.531 236.652 194.039 236.547 194.504 236.335C194.97 236.113 195.393 235.779 195.774 235.335L197.425 236.859C196.896 237.504 196.24 237.996 195.457 238.335C194.684 238.673 193.811 238.843 192.838 238.843ZM204.325 238.843C203.447 238.843 202.632 238.7 201.881 238.414C201.14 238.128 200.495 237.726 199.945 237.208C199.405 236.689 198.982 236.081 198.675 235.383C198.379 234.684 198.23 233.922 198.23 233.097C198.23 232.272 198.379 231.51 198.675 230.811C198.982 230.113 199.41 229.504 199.961 228.986C200.511 228.467 201.156 228.065 201.897 227.78C202.638 227.494 203.442 227.351 204.31 227.351C205.188 227.351 205.992 227.494 206.722 227.78C207.463 228.065 208.103 228.467 208.643 228.986C209.193 229.504 209.622 230.113 209.928 230.811C210.235 231.499 210.389 232.261 210.389 233.097C210.389 233.922 210.235 234.689 209.928 235.398C209.622 236.097 209.193 236.705 208.643 237.224C208.103 237.732 207.463 238.128 206.722 238.414C205.992 238.7 205.193 238.843 204.325 238.843ZM204.31 236.652C204.807 236.652 205.262 236.568 205.675 236.398C206.098 236.229 206.468 235.986 206.786 235.668C207.103 235.351 207.347 234.975 207.516 234.541C207.696 234.107 207.786 233.626 207.786 233.097C207.786 232.568 207.696 232.086 207.516 231.652C207.347 231.219 207.103 230.843 206.786 230.526C206.479 230.208 206.114 229.965 205.691 229.795C205.267 229.626 204.807 229.541 204.31 229.541C203.812 229.541 203.352 229.626 202.929 229.795C202.516 229.965 202.151 230.208 201.833 230.526C201.516 230.843 201.267 231.219 201.087 231.652C200.918 232.086 200.834 232.568 200.834 233.097C200.834 233.615 200.918 234.097 201.087 234.541C201.267 234.975 201.511 235.351 201.818 235.668C202.135 235.986 202.505 236.229 202.929 236.398C203.352 236.568 203.812 236.652 204.31 236.652ZM212.321 238.652V227.541H214.893V238.652H212.321ZM217.529 238.652V227.541H219.656L226.212 235.541H225.18V227.541H227.72V238.652H225.609L219.037 230.653H220.069V238.652H217.529ZM233.999 238.843C233.11 238.843 232.258 238.726 231.444 238.494C230.629 238.25 229.973 237.938 229.475 237.557L230.348 235.621C230.824 235.959 231.385 236.24 232.031 236.462C232.687 236.673 233.348 236.779 234.015 236.779C234.523 236.779 234.93 236.732 235.237 236.636C235.554 236.531 235.787 236.388 235.935 236.208C236.084 236.028 236.158 235.822 236.158 235.589C236.158 235.293 236.041 235.06 235.808 234.89C235.576 234.711 235.269 234.568 234.888 234.462C234.507 234.346 234.084 234.24 233.618 234.144C233.163 234.039 232.703 233.912 232.237 233.764C231.782 233.615 231.364 233.425 230.983 233.192C230.602 232.959 230.29 232.652 230.047 232.272C229.814 231.891 229.698 231.404 229.698 230.811C229.698 230.176 229.867 229.6 230.205 229.081C230.555 228.552 231.073 228.134 231.761 227.827C232.459 227.51 233.332 227.351 234.38 227.351C235.078 227.351 235.766 227.436 236.443 227.605C237.121 227.764 237.718 228.007 238.237 228.335L237.443 230.287C236.925 229.991 236.406 229.774 235.888 229.637C235.369 229.489 234.861 229.414 234.364 229.414C233.867 229.414 233.459 229.473 233.142 229.589C232.824 229.705 232.597 229.859 232.459 230.049C232.322 230.229 232.253 230.441 232.253 230.684C232.253 230.97 232.369 231.203 232.602 231.383C232.835 231.552 233.142 231.69 233.523 231.795C233.904 231.901 234.322 232.007 234.777 232.113C235.242 232.219 235.703 232.34 236.158 232.478C236.623 232.615 237.047 232.801 237.427 233.033C237.808 233.266 238.115 233.573 238.348 233.954C238.591 234.335 238.713 234.816 238.713 235.398C238.713 236.023 238.539 236.594 238.189 237.113C237.84 237.631 237.316 238.049 236.618 238.367C235.93 238.684 235.057 238.843 233.999 238.843Z" fill="#38077C"/>
<path d="M90.1683 151.027C82.5621 153.854 74.956 157.812 73.2657 159.508C68.7584 164.031 75.2377 162.9 88.7597 156.681C105.381 149.331 116.367 149.613 127.917 158.094C133.27 162.052 143.411 166.01 151.017 166.858C160.314 168.271 164.539 169.967 164.539 172.794C164.539 176.186 160.595 176.752 142.003 175.904C119.184 175.056 112.142 177.034 128.199 180.427C149.891 184.667 160.032 182.406 180.315 169.402C200.88 156.115 206.796 154.137 206.796 160.638C206.796 165.444 151.863 201.911 144.538 201.911C141.721 201.911 131.016 197.954 121.156 192.865C105.381 185.233 102 184.384 95.8024 187.211C85.6609 191.734 86.506 196.54 96.9293 192.582C104.254 189.756 107.353 190.604 123.692 198.802C135.523 205.021 143.975 207.565 148.2 206.717C151.863 205.586 167.356 196.257 182.85 185.798C202.852 172.229 211.021 164.879 211.021 160.921C211.021 156.681 208.768 154.985 202.57 154.419C198.063 153.854 192.429 152.158 190.738 150.462C188.766 148.765 185.386 148.2 182.85 149.048C180.597 150.179 178.061 149.331 176.935 147.917C174.681 143.96 162.567 147.069 152.989 154.137C143.411 160.921 138.904 160.921 129.889 153.571C119.184 145.373 106.226 144.525 90.1683 151.027ZM168.765 156.681C165.948 159.79 160.314 162.335 156.37 162.335H149.045L157.497 156.681C169.047 149.048 175.526 149.048 168.765 156.681ZM189.893 155.833C189.893 160.073 170.455 170.815 168.483 167.706C167.638 166.01 167.356 164.313 167.638 164.031C180.033 154.702 189.893 151.027 189.893 155.833Z" fill="#6B7AE5"/>
<path fill-rule="evenodd" clip-rule="evenodd" d="M142.157 127.72C160.172 127.72 174.777 113.403 174.777 95.7426C174.777 78.082 160.172 63.7652 142.157 63.7652C124.141 63.7652 109.537 78.082 109.537 95.7426C109.537 113.403 124.141 127.72 142.157 127.72ZM125.949 105.331C126.457 105.839 127.193 106.092 128.158 106.092C129.097 106.092 129.808 105.839 130.29 105.331C130.798 104.823 131.052 104.1 131.052 103.161V96.0783C131.052 94.733 131.394 93.7049 132.08 92.9942C132.79 92.2834 133.869 91.8646 135.316 91.7376L136.192 91.6615C137.055 91.5599 137.664 91.2807 138.02 90.8238C138.4 90.3669 138.565 89.745 138.515 88.9581C138.489 88.1204 138.299 87.5238 137.943 87.1685C137.613 86.7877 137.131 86.6227 136.497 86.6735C134.847 86.775 133.501 87.2446 132.46 88.0823C131.737 88.6648 131.191 89.4131 130.823 90.3271V89.6434C130.823 88.7042 130.582 87.9935 130.1 87.5111C129.617 87.0035 128.919 86.7496 128.005 86.7496C127.117 86.7496 126.419 87.0035 125.911 87.5111C125.429 87.9935 125.188 88.7042 125.188 89.6434V103.161C125.188 104.1 125.442 104.823 125.949 105.331ZM149.218 109.786C149.65 110.243 150.183 110.471 150.817 110.471C151.503 110.471 152.049 110.243 152.455 109.786C152.886 109.354 153.102 108.809 153.102 108.149V105.94C153.613 105.87 154.121 105.768 154.625 105.636C155.59 105.382 156.44 105.052 157.176 104.646C157.658 104.392 158.001 104.062 158.204 103.656C158.433 103.224 158.522 102.792 158.471 102.361C158.445 101.904 158.306 101.498 158.052 101.143C157.823 100.787 157.493 100.559 157.062 100.457C156.656 100.33 156.161 100.394 155.577 100.648C154.968 100.952 154.371 101.168 153.787 101.295C153.229 101.422 152.709 101.485 152.226 101.485C150.703 101.485 149.523 101.003 148.685 100.038C147.873 99.0483 147.467 97.8045 147.467 96.3068C147.467 95.5707 147.568 94.898 147.771 94.2888C148 93.6541 148.317 93.1084 148.723 92.6515C149.129 92.1945 149.624 91.8519 150.208 91.6234C150.817 91.3696 151.503 91.2426 152.264 91.2426C152.823 91.2426 153.394 91.3188 153.978 91.4711C154.562 91.598 155.095 91.8011 155.577 92.0803C156.085 92.3088 156.542 92.3722 156.948 92.2707C157.379 92.1692 157.735 91.9534 158.014 91.6234C158.293 91.268 158.458 90.8746 158.509 90.443C158.585 90.0115 158.534 89.5927 158.357 89.1865C158.179 88.7804 157.862 88.4504 157.405 88.1965C156.618 87.765 155.729 87.435 154.739 87.2065C154.194 87.0806 153.648 86.9855 153.102 86.9213V84.5031C153.102 83.8177 152.886 83.2593 152.455 82.8277C152.049 82.3962 151.503 82.1805 150.817 82.1805C150.183 82.1805 149.65 82.3962 149.218 82.8277C148.787 83.2593 148.571 83.8177 148.571 84.5031V87.2596C147.743 87.4778 146.969 87.7901 146.248 88.1965C145.284 88.755 144.446 89.453 143.735 90.2907C143.05 91.103 142.517 92.0296 142.136 93.0703C141.781 94.1111 141.603 95.228 141.603 96.421C141.603 98.071 141.92 99.5687 142.555 100.914C143.189 102.234 144.103 103.326 145.296 104.189C146.25 104.879 147.342 105.382 148.571 105.699V108.149C148.571 108.809 148.787 109.354 149.218 109.786Z" fill="#6B7AE5"/>
</svg>
