<svg width="680" height="680" viewBox="0 0 680 680" fill="none" xmlns="http://www.w3.org/2000/svg">
<path d="M367.022 463.888C367.022 412.52 409.624 370.588 462.538 370.588H637.685C656.843 370.588 672.079 385.741 672.079 404.076V638.591C672.079 656.925 656.843 672.079 637.685 672.079H401.416C382.259 672.079 367.022 656.925 367.022 638.591V463.888Z" fill="white" stroke="#6B7AE5" stroke-width="15.8422"/>
<path d="M7.9211 404.076C7.9211 385.562 22.8869 370.588 41.3073 370.588H212.285C263.658 370.588 305.337 412.341 305.337 463.889V638.591C305.337 657.105 290.372 672.079 271.951 672.079H41.3073C22.8869 672.079 7.9211 657.105 7.9211 638.591V404.076Z" fill="white" stroke="#6B7AE5" stroke-width="15.8422"/>
<path d="M367.022 42.3947C367.022 23.3414 382.435 7.9211 401.416 7.9211H637.685C656.666 7.9211 672.079 23.3414 672.079 42.3947V282.494C672.079 301.547 656.666 316.968 637.685 316.968H462.538C409.8 316.968 367.022 274.131 367.022 221.258V42.3947Z" fill="white" stroke="#6B7AE5" stroke-width="15.8422"/>
<path d="M7.9211 42.3947C7.9211 23.1602 23.0614 7.9211 41.3073 7.9211H271.951C290.197 7.9211 305.337 23.1602 305.337 42.3947V221.258C305.337 274.312 263.484 316.968 212.285 316.968H41.3073C23.0615 316.968 7.9211 301.729 7.9211 282.494V42.3947Z" fill="white" stroke="#6B7AE5" stroke-width="15.8422"/>
<path d="M75.5486 51.093C74.563 51.093 73.6185 50.9639 72.715 50.7058C71.8116 50.4359 71.0841 50.0898 70.5326 49.6674L71.5006 47.5202C72.0286 47.8957 72.6505 48.2066 73.3662 48.453C74.0937 48.6877 74.827 48.805 75.5662 48.805C76.1294 48.805 76.5812 48.7522 76.9214 48.6466C77.2734 48.5293 77.5316 48.3709 77.6958 48.1714C77.8601 47.9719 77.9422 47.7431 77.9422 47.485C77.9422 47.1565 77.8132 46.8983 77.555 46.7106C77.2969 46.5111 76.9566 46.3527 76.5342 46.2354C76.1118 46.1063 75.6425 45.989 75.1262 45.8834C74.6217 45.7661 74.1113 45.6253 73.595 45.461C73.0905 45.2967 72.627 45.0855 72.2046 44.8274C71.7822 44.5693 71.4361 44.229 71.1662 43.8066C70.9081 43.3842 70.779 42.8445 70.779 42.1874C70.779 41.4834 70.9668 40.8439 71.3422 40.269C71.7294 39.6823 72.3044 39.2189 73.067 38.8786C73.8414 38.5266 74.8094 38.3506 75.971 38.3506C76.7454 38.3506 77.5081 38.4445 78.259 38.6322C79.01 38.8082 79.6729 39.0781 80.2478 39.4418L79.3678 41.6066C78.7929 41.2781 78.218 41.0375 77.643 40.885C77.0681 40.7207 76.5049 40.6386 75.9534 40.6386C75.402 40.6386 74.9502 40.7031 74.5982 40.8322C74.2462 40.9613 73.994 41.1314 73.8414 41.3426C73.6889 41.5421 73.6126 41.7767 73.6126 42.0466C73.6126 42.3634 73.7417 42.6215 73.9998 42.821C74.258 43.0087 74.5982 43.1613 75.0206 43.2786C75.443 43.3959 75.9065 43.5133 76.411 43.6306C76.9273 43.7479 77.4377 43.8829 77.9422 44.0354C78.4585 44.1879 78.9278 44.3933 79.3502 44.6514C79.7726 44.9095 80.1129 45.2498 80.371 45.6722C80.6409 46.0946 80.7758 46.6285 80.7758 47.2738C80.7758 47.9661 80.5822 48.5997 80.195 49.1746C79.8078 49.7495 79.227 50.213 78.4526 50.565C77.69 50.917 76.722 51.093 75.5486 51.093ZM85.3465 43.525H91.2777V45.7426H85.3465V43.525ZM85.5577 48.5938H92.2633V50.8818H82.7241V38.5618H92.0345V40.8498H85.5577V48.5938ZM105.412 51.093C104.462 51.093 103.576 50.9405 102.755 50.6354C101.945 50.3186 101.241 49.8727 100.643 49.2978C100.044 48.7229 99.5749 48.0482 99.2347 47.2738C98.9061 46.4994 98.7419 45.6487 98.7419 44.7218C98.7419 43.7949 98.9061 42.9442 99.2347 42.1698C99.5749 41.3954 100.044 40.7207 100.643 40.1458C101.253 39.5709 101.963 39.1309 102.772 38.8258C103.582 38.509 104.468 38.3506 105.43 38.3506C106.498 38.3506 107.46 38.5383 108.316 38.9138C109.185 39.2775 109.912 39.8173 110.499 40.533L108.668 42.2226C108.246 41.7415 107.777 41.3837 107.26 41.149C106.744 40.9026 106.181 40.7794 105.571 40.7794C104.996 40.7794 104.468 40.8733 103.987 41.061C103.506 41.2487 103.089 41.5186 102.737 41.8706C102.385 42.2226 102.109 42.6391 101.91 43.1202C101.722 43.6013 101.628 44.1351 101.628 44.7218C101.628 45.3085 101.722 45.8423 101.91 46.3234C102.109 46.8045 102.385 47.221 102.737 47.573C103.089 47.925 103.506 48.1949 103.987 48.3826C104.468 48.5703 104.996 48.6642 105.571 48.6642C106.181 48.6642 106.744 48.5469 107.26 48.3122C107.777 48.0658 108.246 47.6962 108.668 47.2034L110.499 48.893C109.912 49.6087 109.185 50.1543 108.316 50.5298C107.46 50.9053 106.492 51.093 105.412 51.093ZM110.581 50.8818L116.073 38.5618H118.889L124.397 50.8818H121.405L116.9 40.005H118.026L113.503 50.8818H110.581ZM113.327 48.2418L114.084 46.077H120.42L121.194 48.2418H113.327ZM125.676 50.8818V38.5618H131.272C132.61 38.5618 133.789 38.8199 134.81 39.3362C135.831 39.8407 136.629 40.5506 137.204 41.4658C137.779 42.381 138.066 43.4663 138.066 44.7218C138.066 45.9655 137.779 47.0509 137.204 47.9778C136.629 48.893 135.831 49.6087 134.81 50.125C133.789 50.6295 132.61 50.8818 131.272 50.8818H125.676ZM128.527 48.541H131.132C131.953 48.541 132.663 48.3885 133.261 48.0834C133.871 47.7666 134.341 47.3207 134.669 46.7458C135.01 46.1709 135.18 45.4962 135.18 44.7218C135.18 43.9357 135.01 43.261 134.669 42.6978C134.341 42.1229 133.871 41.6829 133.261 41.3778C132.663 41.061 131.953 40.9026 131.132 40.9026H128.527V48.541ZM138.425 50.8818L143.916 38.5618H146.732L152.241 50.8818H149.249L144.744 40.005H145.87L141.347 50.8818H138.425ZM141.171 48.2418L141.928 46.077H148.264L149.038 48.2418H141.171ZM157.567 51.093C156.582 51.093 155.637 50.9639 154.734 50.7058C153.83 50.4359 153.103 50.0898 152.551 49.6674L153.519 47.5202C154.047 47.8957 154.669 48.2066 155.385 48.453C156.112 48.6877 156.846 48.805 157.585 48.805C158.148 48.805 158.6 48.7522 158.94 48.6466C159.292 48.5293 159.55 48.3709 159.715 48.1714C159.879 47.9719 159.961 47.7431 159.961 47.485C159.961 47.1565 159.832 46.8983 159.574 46.7106C159.316 46.5111 158.975 46.3527 158.553 46.2354C158.131 46.1063 157.661 45.989 157.145 45.8834C156.64 45.7661 156.13 45.6253 155.614 45.461C155.109 45.2967 154.646 45.0855 154.223 44.8274C153.801 44.5693 153.455 44.229 153.185 43.8066C152.927 43.3842 152.798 42.8445 152.798 42.1874C152.798 41.4834 152.986 40.8439 153.361 40.269C153.748 39.6823 154.323 39.2189 155.086 38.8786C155.86 38.5266 156.828 38.3506 157.99 38.3506C158.764 38.3506 159.527 38.4445 160.278 38.6322C161.029 38.8082 161.692 39.0781 162.267 39.4418L161.387 41.6066C160.812 41.2781 160.237 41.0375 159.662 40.885C159.087 40.7207 158.524 40.6386 157.972 40.6386C157.421 40.6386 156.969 40.7031 156.617 40.8322C156.265 40.9613 156.013 41.1314 155.86 41.3426C155.708 41.5421 155.631 41.7767 155.631 42.0466C155.631 42.3634 155.76 42.6215 156.019 42.821C156.277 43.0087 156.617 43.1613 157.039 43.2786C157.462 43.3959 157.925 43.5133 158.43 43.6306C158.946 43.7479 159.456 43.8829 159.961 44.0354C160.477 44.1879 160.947 44.3933 161.369 44.6514C161.791 44.9095 162.132 45.2498 162.39 45.6722C162.66 46.0946 162.795 46.6285 162.795 47.2738C162.795 47.9661 162.601 48.5997 162.214 49.1746C161.827 49.7495 161.246 50.213 160.471 50.565C159.709 50.917 158.741 51.093 157.567 51.093ZM167.123 50.8818V40.885H163.181V38.5618H173.917V40.885H169.974V50.8818H167.123ZM175.451 50.8818V38.5618H180.783C181.886 38.5618 182.837 38.7437 183.635 39.1074C184.433 39.4594 185.049 39.9698 185.483 40.6386C185.917 41.3074 186.134 42.1053 186.134 43.0322C186.134 43.9474 185.917 44.7394 185.483 45.4082C185.049 46.0653 184.433 46.5698 183.635 46.9218C182.837 47.2738 181.886 47.4498 180.783 47.4498H177.035L178.302 46.2002V50.8818H175.451ZM183.283 50.8818L180.203 46.4114H183.247L186.363 50.8818H183.283ZM178.302 46.517L177.035 45.1794H180.625C181.505 45.1794 182.162 44.9917 182.596 44.6162C183.03 44.229 183.247 43.701 183.247 43.0322C183.247 42.3517 183.03 41.8237 182.596 41.4482C182.162 41.0727 181.505 40.885 180.625 40.885H177.035L178.302 39.5298V46.517ZM191.015 43.525H196.946V45.7426H191.015V43.525ZM191.226 48.5938H197.932V50.8818H188.393V38.5618H197.703V40.8498H191.226V48.5938ZM210.169 50.8818V38.5618H212.528L219.797 47.4322H218.653V38.5618H221.469V50.8818H219.128L211.841 42.0114H212.985V50.8818H210.169ZM230.367 51.093C229.394 51.093 228.49 50.9346 227.657 50.6178C226.836 50.301 226.12 49.8551 225.51 49.2802C224.911 48.7053 224.442 48.0306 224.102 47.2562C223.773 46.4818 223.609 45.637 223.609 44.7218C223.609 43.8066 223.773 42.9618 224.102 42.1874C224.442 41.413 224.917 40.7383 225.527 40.1634C226.138 39.5885 226.853 39.1426 227.675 38.8258C228.496 38.509 229.388 38.3506 230.35 38.3506C231.324 38.3506 232.215 38.509 233.025 38.8258C233.846 39.1426 234.556 39.5885 235.155 40.1634C235.765 40.7383 236.24 41.413 236.58 42.1874C236.921 42.9501 237.091 43.7949 237.091 44.7218C237.091 45.637 236.921 46.4877 236.58 47.2738C236.24 48.0482 235.765 48.7229 235.155 49.2978C234.556 49.861 233.846 50.301 233.025 50.6178C232.215 50.9346 231.33 51.093 230.367 51.093ZM230.35 48.6642C230.901 48.6642 231.406 48.5703 231.863 48.3826C232.333 48.1949 232.743 47.925 233.095 47.573C233.447 47.221 233.717 46.8045 233.905 46.3234C234.105 45.8423 234.204 45.3085 234.204 44.7218C234.204 44.1351 234.105 43.6013 233.905 43.1202C233.717 42.6391 233.447 42.2226 233.095 41.8706C232.755 41.5186 232.35 41.2487 231.881 41.061C231.412 40.8733 230.901 40.7794 230.35 40.7794C229.798 40.7794 229.288 40.8733 228.819 41.061C228.361 41.2487 227.956 41.5186 227.604 41.8706C227.252 42.2226 226.977 42.6391 226.777 43.1202C226.589 43.6013 226.495 44.1351 226.495 44.7218C226.495 45.2967 226.589 45.8306 226.777 46.3234C226.977 46.8045 227.246 47.221 227.587 47.573C227.939 47.925 228.349 48.1949 228.819 48.3826C229.288 48.5703 229.798 48.6642 230.35 48.6642ZM110.637 71.8818V59.5618H115.969C117.072 59.5618 118.023 59.7437 118.821 60.1074C119.618 60.4594 120.234 60.9698 120.669 61.6386C121.103 62.3074 121.32 63.1053 121.32 64.0322C121.32 64.9474 121.103 65.7394 120.669 66.4082C120.234 67.0653 119.618 67.5698 118.821 67.9218C118.023 68.2738 117.072 68.4498 115.969 68.4498H112.221L113.488 67.2002V71.8818H110.637ZM118.469 71.8818L115.389 67.4114H118.433L121.549 71.8818H118.469ZM113.488 67.517L112.221 66.1794H115.811C116.691 66.1794 117.348 65.9917 117.782 65.6162C118.216 65.229 118.433 64.701 118.433 64.0322C118.433 63.3517 118.216 62.8237 117.782 62.4482C117.348 62.0727 116.691 61.885 115.811 61.885H112.221L113.488 60.5298V67.517ZM129.052 72.093C127.304 72.093 125.937 71.6061 124.952 70.6322C123.966 69.6583 123.473 68.2679 123.473 66.461V59.5618H126.324V66.3554C126.324 67.5287 126.565 68.3735 127.046 68.8898C127.527 69.4061 128.202 69.6642 129.07 69.6642C129.938 69.6642 130.613 69.4061 131.094 68.8898C131.575 68.3735 131.816 67.5287 131.816 66.3554V59.5618H134.632V66.461C134.632 68.2679 134.139 69.6583 133.153 70.6322C132.168 71.6061 130.801 72.093 129.052 72.093ZM137.449 71.8818V59.5618H143.468C145.017 59.5618 146.179 59.8551 146.953 60.4418C147.739 61.0285 148.132 61.8029 148.132 62.765C148.132 63.4103 147.974 63.9735 147.657 64.4546C147.34 64.9239 146.906 65.2877 146.355 65.5458C145.803 65.8039 145.17 65.933 144.454 65.933L144.788 65.2114C145.563 65.2114 146.249 65.3405 146.847 65.5986C147.446 65.845 147.909 66.2146 148.238 66.7074C148.578 67.2002 148.748 67.8045 148.748 68.5202C148.748 69.5762 148.332 70.4034 147.499 71.0018C146.666 71.5885 145.439 71.8818 143.82 71.8818H137.449ZM140.283 69.7346H143.609C144.348 69.7346 144.906 69.6173 145.281 69.3826C145.668 69.1362 145.862 68.749 145.862 68.221C145.862 67.7047 145.668 67.3234 145.281 67.077C144.906 66.8189 144.348 66.6898 143.609 66.6898H140.071V64.613H143.116C143.809 64.613 144.337 64.4957 144.7 64.261C145.076 64.0146 145.263 63.645 145.263 63.1522C145.263 62.6711 145.076 62.3133 144.7 62.0786C144.337 61.8322 143.809 61.709 143.116 61.709H140.283V69.7346ZM150.907 71.8818V59.5618H156.926C158.475 59.5618 159.636 59.8551 160.411 60.4418C161.197 61.0285 161.59 61.8029 161.59 62.765C161.59 63.4103 161.432 63.9735 161.115 64.4546C160.798 64.9239 160.364 65.2877 159.812 65.5458C159.261 65.8039 158.627 65.933 157.912 65.933L158.246 65.2114C159.02 65.2114 159.707 65.3405 160.305 65.5986C160.904 65.845 161.367 66.2146 161.696 66.7074C162.036 67.2002 162.206 67.8045 162.206 68.5202C162.206 69.5762 161.79 70.4034 160.956 71.0018C160.123 71.5885 158.897 71.8818 157.278 71.8818H150.907ZM153.74 69.7346H157.067C157.806 69.7346 158.363 69.6173 158.739 69.3826C159.126 69.1362 159.32 68.749 159.32 68.221C159.32 67.7047 159.126 67.3234 158.739 67.077C158.363 66.8189 157.806 66.6898 157.067 66.6898H153.529V64.613H156.574C157.266 64.613 157.794 64.4957 158.158 64.261C158.534 64.0146 158.721 63.645 158.721 63.1522C158.721 62.6711 158.534 62.3133 158.158 62.0786C157.794 61.8322 157.266 61.709 156.574 61.709H153.74V69.7346ZM162.746 71.8818L168.237 59.5618H171.053L176.562 71.8818H173.57L169.064 61.005H170.19L165.667 71.8818H162.746ZM165.491 69.2418L166.248 67.077H172.584L173.358 69.2418H165.491ZM177.84 71.8818V59.5618H180.198L187.467 68.4322H186.323V59.5618H189.139V71.8818H186.798L179.512 63.0114H180.656V71.8818H177.84ZM194.606 69.0658L194.447 65.7746L200.343 59.5618H203.511L198.196 65.2818L196.612 66.9714L194.606 69.0658ZM192.054 71.8818V59.5618H194.887V71.8818H192.054ZM200.484 71.8818L196.102 66.5138L197.967 64.4898L203.811 71.8818H200.484Z" fill="#38077C"/>
<path d="M130.174 116.363C127.658 117.625 125.654 120.056 125.002 122.674C124.676 123.89 124.49 130.528 124.49 140.066V155.494L122.3 154.839C118.107 153.53 114.752 155.073 113.82 158.673C113.587 159.701 113.168 163.021 112.888 166.106C112.609 169.192 112.096 172.885 111.677 174.288C110.279 179.01 107.157 184.526 103.15 189.388C97.0467 196.822 96.5342 198.131 95.3693 209.585C94.4375 218.561 93.459 224.125 92.201 228.005C91.3158 230.857 90.7567 231.558 85.3985 237.075L79.5745 243.012L80.9256 244.415L82.2768 245.817L88.0543 240.114C91.3158 236.841 94.2511 233.428 94.9034 232.259C96.3944 229.314 97.7921 223.283 98.6308 216.13C99.0036 212.764 99.5627 208.089 99.8422 205.658C100.495 200.094 101.659 197.523 105.62 192.754C109.72 187.846 111.723 184.76 113.773 179.898C116.01 174.708 116.429 172.885 117.035 165.685C117.268 162.366 117.734 159.374 118.013 159.047C119.691 156.99 123.931 159.654 125.002 163.395C125.794 166.059 125.794 175.176 125.049 178.963C124.396 182.422 124.303 222.769 124.956 225.2C125.608 227.725 127.798 230.53 129.894 231.605C131.479 232.353 133.109 232.54 141.589 232.727L151.467 232.961L150.022 235.439C148.159 238.664 143.965 243.199 141.496 244.649C140.331 245.35 138.188 246.004 135.998 246.285C129.988 247.126 128.264 248.202 123.604 253.952C120.296 258.02 114.239 266.061 114.239 266.388C114.239 266.528 114.938 267.089 115.777 267.697C117.221 268.726 117.268 268.726 117.967 267.884C118.339 267.37 120.669 264.378 123.092 261.199C130.5 251.521 130.919 251.241 138.048 250.072C139.725 249.791 141.776 249.23 142.614 248.809C146.202 247.033 152.632 239.786 155.194 234.691L156.173 232.727H166.097H175.974L177.838 235.672C180.447 239.786 182.358 241.75 185.666 243.854C191.117 247.313 197.174 254.981 201.461 263.863C202.532 266.154 203.511 268.118 203.557 268.165C203.697 268.445 206.912 267.323 207.145 266.902C207.471 266.388 202.952 257.645 200.156 253.438C196.102 247.313 192.841 243.807 188.508 240.908C184.035 237.87 183.569 237.309 174.763 223.61C165.398 209.071 164.559 207.528 164.559 205.518C164.559 204.536 164.885 202.946 165.258 202.011C165.631 201.123 165.957 199.674 165.957 198.879C165.957 198.037 164.187 191.96 161.997 185.368C156.965 170.127 154.262 160.683 154.216 158.439C154.216 156.148 154.961 154.746 156.452 154.372C159.993 153.483 161.577 156.709 169.498 180.319C174.297 194.531 174.437 194.858 176.161 194.858C177.885 194.858 178.304 193.736 177.652 191.258C175.276 182.796 182.451 179.991 186.598 187.752C187.716 189.809 188.135 190.183 189.207 190.183C190.558 190.183 190.977 189.575 191.816 186.443C192.422 184.292 193.959 182.235 194.938 182.235C196.242 182.235 198.712 184.199 199.97 186.209C201.041 187.986 202.858 188.734 203.883 187.892C204.21 187.612 204.862 186.35 205.328 185.134C206.213 182.703 207.285 181.3 208.123 181.3C209.288 181.3 212.876 185.04 214.32 187.705C216.976 192.754 220.051 204.068 222.8 219.169C224.384 227.725 226.294 232.727 229.37 236.233L230.86 237.916L231.979 236.233L233.097 234.597L231.653 232.493C229.23 228.987 228.344 226.275 226.294 215.896C222.008 194.344 219.399 186.583 214.833 181.534C210.639 176.999 207.285 176.158 204.349 179.01C203.511 179.851 202.672 180.926 202.486 181.394C202.253 182.189 202.066 182.142 200.529 180.786C196.289 177.046 191.723 177.467 189.44 181.815C189.067 182.563 188.554 183.077 188.321 182.937C188.042 182.75 187.856 171.483 187.856 153.343C187.856 134.315 187.669 123.422 187.343 122.253C186.737 119.962 184.408 117.344 182.031 116.269C180.308 115.474 178.397 115.381 156.173 115.381C132.69 115.381 132.131 115.381 130.174 116.363ZM142.474 120.991L144.524 122.861H156.173H167.821L169.917 120.944L171.967 119.027L175.928 119.168C180.168 119.355 181.892 120.149 183.057 122.44C183.522 123.282 183.662 130.248 183.662 151.566V179.524L182.218 179.243C180.261 178.869 177.512 179.664 175.788 181.067L174.437 182.235L172.2 175.597C165.351 154.746 162.696 150.257 157.384 150.257C153.237 150.257 150.116 153.577 150.116 158.065C150.116 160.683 152.771 170.174 157.897 185.648C162.043 198.318 161.997 198.224 160.785 202.946C159.9 206.312 160.739 209.117 164.326 214.774C166.004 217.392 167.355 219.637 167.355 219.824C167.355 219.964 161.484 220.104 154.262 220.104C146.155 220.104 140.844 220.291 140.285 220.572C139.306 221.133 139.12 222.909 139.958 223.751C140.378 224.171 144.478 224.312 155.474 224.312H170.383L171.036 225.34C171.408 225.948 172.014 226.883 172.387 227.444L173.039 228.519H152.725H132.41L130.64 226.93L128.916 225.34V202.713C128.916 189.295 129.149 178.028 129.428 174.989C129.801 171.483 129.801 168.911 129.522 166.807C129.242 165.124 128.963 154.886 128.823 144.039C128.636 126.04 128.73 124.123 129.428 122.581C130.547 120.243 133.063 119.168 137.256 119.121C140.331 119.121 140.518 119.168 142.474 120.991Z" fill="#6B7AE5"/>
<path d="M53.2253 627.872C52.2514 627.872 51.3538 627.719 50.5325 627.414C49.7229 627.097 49.013 626.651 48.4029 626.076C47.8045 625.501 47.3351 624.827 46.9949 624.052C46.6663 623.278 46.5021 622.427 46.5021 621.5C46.5021 620.573 46.6663 619.723 46.9949 618.948C47.3351 618.174 47.8103 617.499 48.4205 616.924C49.0306 616.349 49.7463 615.909 50.5677 615.604C51.389 615.288 52.2925 615.129 53.2781 615.129C54.3693 615.129 55.349 615.311 56.2173 615.675C57.0973 616.039 57.8365 616.567 58.4349 617.259L56.6045 618.948C56.1586 618.479 55.6717 618.133 55.1437 617.91C54.6157 617.675 54.0407 617.558 53.4189 617.558C52.8205 617.558 52.2749 617.652 51.7821 617.84C51.2893 618.027 50.861 618.297 50.4973 618.649C50.1453 619.001 49.8695 619.418 49.6701 619.899C49.4823 620.38 49.3885 620.914 49.3885 621.5C49.3885 622.075 49.4823 622.603 49.6701 623.084C49.8695 623.565 50.1453 623.988 50.4973 624.352C50.861 624.704 51.2834 624.973 51.7645 625.161C52.2573 625.349 52.797 625.443 53.3837 625.443C53.9469 625.443 54.4925 625.355 55.0205 625.179C55.5602 624.991 56.0823 624.68 56.5869 624.246L58.2061 626.305C57.5373 626.81 56.757 627.197 55.8653 627.467C54.9853 627.737 54.1053 627.872 53.2253 627.872ZM55.6013 625.936V621.307H58.2061V626.305L55.6013 625.936ZM59.2354 627.66L64.7266 615.34H67.5426L73.0514 627.66H70.0594L65.5538 616.784H66.6802L62.157 627.66H59.2354ZM61.981 625.02L62.7378 622.856H69.0738L69.8482 625.02H61.981ZM78.3776 627.872C77.392 627.872 76.4475 627.743 75.544 627.484C74.6405 627.215 73.9131 626.868 73.3616 626.446L74.3296 624.299C74.8576 624.674 75.4795 624.985 76.1952 625.232C76.9227 625.466 77.656 625.584 78.3952 625.584C78.9584 625.584 79.4101 625.531 79.7504 625.425C80.1024 625.308 80.3605 625.149 80.5248 624.95C80.6891 624.751 80.7712 624.522 80.7712 624.264C80.7712 623.935 80.6421 623.677 80.384 623.489C80.1259 623.29 79.7856 623.131 79.3632 623.014C78.9408 622.885 78.4715 622.768 77.9552 622.662C77.4507 622.545 76.9403 622.404 76.424 622.24C75.9195 622.075 75.456 621.864 75.0336 621.606C74.6112 621.348 74.2651 621.008 73.9952 620.585C73.7371 620.163 73.608 619.623 73.608 618.966C73.608 618.262 73.7957 617.623 74.1712 617.048C74.5584 616.461 75.1333 615.997 75.896 615.657C76.6704 615.305 77.6384 615.129 78.8 615.129C79.5744 615.129 80.3371 615.223 81.088 615.411C81.8389 615.587 82.5019 615.857 83.0768 616.22L82.1968 618.385C81.6219 618.057 81.0469 617.816 80.472 617.664C79.8971 617.499 79.3339 617.417 78.7824 617.417C78.2309 617.417 77.7792 617.482 77.4272 617.611C77.0752 617.74 76.8229 617.91 76.6704 618.121C76.5179 618.321 76.4416 618.555 76.4416 618.825C76.4416 619.142 76.5707 619.4 76.8288 619.6C77.0869 619.787 77.4272 619.94 77.8496 620.057C78.272 620.175 78.7355 620.292 79.24 620.409C79.7563 620.527 80.2667 620.661 80.7712 620.814C81.2875 620.967 81.7568 621.172 82.1792 621.43C82.6016 621.688 82.9419 622.028 83.2 622.451C83.4699 622.873 83.6048 623.407 83.6048 624.052C83.6048 624.745 83.4112 625.378 83.024 625.953C82.6368 626.528 82.056 626.992 81.2816 627.344C80.5189 627.696 79.5509 627.872 78.3776 627.872ZM87.9332 627.66V617.664H83.9908V615.34H94.7268V617.664H90.7844V627.66H87.9332ZM98.8832 620.304H104.814V622.521H98.8832V620.304ZM99.0944 625.372H105.8V627.66H96.2608V615.34H105.571V617.628H99.0944V625.372ZM117.101 627.872C116.115 627.872 115.171 627.743 114.267 627.484C113.364 627.215 112.637 626.868 112.085 626.446L113.053 624.299C113.581 624.674 114.203 624.985 114.919 625.232C115.646 625.466 116.379 625.584 117.119 625.584C117.682 625.584 118.134 625.531 118.474 625.425C118.826 625.308 119.084 625.149 119.248 624.95C119.413 624.751 119.495 624.522 119.495 624.264C119.495 623.935 119.366 623.677 119.107 623.489C118.849 623.29 118.509 623.131 118.087 623.014C117.664 622.885 117.195 622.768 116.679 622.662C116.174 622.545 115.664 622.404 115.147 622.24C114.643 622.075 114.179 621.864 113.757 621.606C113.335 621.348 112.989 621.008 112.719 620.585C112.461 620.163 112.331 619.623 112.331 618.966C112.331 618.262 112.519 617.623 112.895 617.048C113.282 616.461 113.857 615.997 114.619 615.657C115.394 615.305 116.362 615.129 117.523 615.129C118.298 615.129 119.061 615.223 119.811 615.411C120.562 615.587 121.225 615.857 121.8 616.22L120.92 618.385C120.345 618.057 119.77 617.816 119.195 617.664C118.621 617.499 118.057 617.417 117.506 617.417C116.954 617.417 116.503 617.482 116.151 617.611C115.799 617.74 115.546 617.91 115.394 618.121C115.241 618.321 115.165 618.555 115.165 618.825C115.165 619.142 115.294 619.4 115.552 619.6C115.81 619.787 116.151 619.94 116.573 620.057C116.995 620.175 117.459 620.292 117.963 620.409C118.48 620.527 118.99 620.661 119.495 620.814C120.011 620.967 120.48 621.172 120.903 621.43C121.325 621.688 121.665 622.028 121.923 622.451C122.193 622.873 122.328 623.407 122.328 624.052C122.328 624.745 122.135 625.378 121.747 625.953C121.36 626.528 120.779 626.992 120.005 627.344C119.242 627.696 118.274 627.872 117.101 627.872ZM129.75 627.872C128.002 627.872 126.635 627.385 125.649 626.411C124.664 625.437 124.171 624.047 124.171 622.24V615.34H127.022V622.134C127.022 623.307 127.263 624.152 127.744 624.668C128.225 625.185 128.899 625.443 129.768 625.443C130.636 625.443 131.311 625.185 131.792 624.668C132.273 624.152 132.513 623.307 132.513 622.134V615.34H135.329V622.24C135.329 624.047 134.836 625.437 133.851 626.411C132.865 627.385 131.498 627.872 129.75 627.872ZM136.27 627.66L141.761 615.34H144.577L150.086 627.66H147.094L142.588 616.784H143.715L139.191 627.66H136.27ZM139.015 625.02L139.772 622.856H146.108L146.883 625.02H139.015ZM155.412 627.872C154.426 627.872 153.482 627.743 152.578 627.484C151.675 627.215 150.947 626.868 150.396 626.446L151.364 624.299C151.892 624.674 152.514 624.985 153.23 625.232C153.957 625.466 154.69 625.584 155.43 625.584C155.993 625.584 156.445 625.531 156.785 625.425C157.137 625.308 157.395 625.149 157.559 624.95C157.723 624.751 157.806 624.522 157.806 624.264C157.806 623.935 157.677 623.677 157.418 623.489C157.16 623.29 156.82 623.131 156.398 623.014C155.975 622.885 155.506 622.768 154.99 622.662C154.485 622.545 153.975 622.404 153.458 622.24C152.954 622.075 152.49 621.864 152.068 621.606C151.646 621.348 151.299 621.008 151.03 620.585C150.771 620.163 150.642 619.623 150.642 618.966C150.642 618.262 150.83 617.623 151.206 617.048C151.593 616.461 152.168 615.997 152.93 615.657C153.705 615.305 154.673 615.129 155.834 615.129C156.609 615.129 157.371 615.223 158.122 615.411C158.873 615.587 159.536 615.857 160.111 616.22L159.231 618.385C158.656 618.057 158.081 617.816 157.506 617.664C156.931 617.499 156.368 617.417 155.817 617.417C155.265 617.417 154.814 617.482 154.462 617.611C154.11 617.74 153.857 617.91 153.705 618.121C153.552 618.321 153.476 618.555 153.476 618.825C153.476 619.142 153.605 619.4 153.863 619.6C154.121 619.787 154.462 619.94 154.884 620.057C155.306 620.175 155.77 620.292 156.274 620.409C156.791 620.527 157.301 620.661 157.806 620.814C158.322 620.967 158.791 621.172 159.214 621.43C159.636 621.688 159.976 622.028 160.234 622.451C160.504 622.873 160.639 623.407 160.639 624.052C160.639 624.745 160.446 625.378 160.058 625.953C159.671 626.528 159.09 626.992 158.316 627.344C157.553 627.696 156.585 627.872 155.412 627.872ZM167.572 627.66V615.34H172.905C174.008 615.34 174.958 615.522 175.756 615.886C176.554 616.238 177.17 616.748 177.604 617.417C178.038 618.086 178.255 618.884 178.255 619.811C178.255 620.726 178.038 621.518 177.604 622.187C177.17 622.844 176.554 623.348 175.756 623.7C174.958 624.052 174.008 624.228 172.905 624.228H169.156L170.423 622.979V627.66H167.572ZM175.404 627.66L172.324 623.19H175.369L178.484 627.66H175.404ZM170.423 623.296L169.156 621.958H172.746C173.626 621.958 174.283 621.77 174.717 621.395C175.152 621.008 175.369 620.48 175.369 619.811C175.369 619.13 175.152 618.602 174.717 618.227C174.283 617.851 173.626 617.664 172.746 617.664H169.156L170.423 616.308V623.296ZM185.988 627.872C184.239 627.872 182.872 627.385 181.887 626.411C180.901 625.437 180.408 624.047 180.408 622.24V615.34H183.26V622.134C183.26 623.307 183.5 624.152 183.981 624.668C184.462 625.185 185.137 625.443 186.005 625.443C186.873 625.443 187.548 625.185 188.029 624.668C188.51 624.152 188.751 623.307 188.751 622.134V615.34H191.567V622.24C191.567 624.047 191.074 625.437 190.088 626.411C189.103 627.385 187.736 627.872 185.988 627.872ZM194.384 627.66V615.34H200.403C201.952 615.34 203.114 615.634 203.888 616.22C204.674 616.807 205.067 617.581 205.067 618.544C205.067 619.189 204.909 619.752 204.592 620.233C204.275 620.703 203.841 621.066 203.29 621.324C202.738 621.583 202.105 621.712 201.389 621.712L201.723 620.99C202.498 620.99 203.184 621.119 203.783 621.377C204.381 621.624 204.845 621.993 205.173 622.486C205.513 622.979 205.683 623.583 205.683 624.299C205.683 625.355 205.267 626.182 204.434 626.78C203.601 627.367 202.375 627.66 200.755 627.66H194.384ZM197.218 625.513H200.544C201.283 625.513 201.841 625.396 202.216 625.161C202.603 624.915 202.797 624.528 202.797 624C202.797 623.483 202.603 623.102 202.216 622.856C201.841 622.597 201.283 622.468 200.544 622.468H197.007V620.392H200.051C200.744 620.392 201.272 620.274 201.635 620.04C202.011 619.793 202.199 619.424 202.199 618.931C202.199 618.45 202.011 618.092 201.635 617.857C201.272 617.611 200.744 617.488 200.051 617.488H197.218V625.513ZM213.738 627.872C212.788 627.872 211.902 627.719 211.081 627.414C210.271 627.097 209.567 626.651 208.969 626.076C208.37 625.501 207.901 624.827 207.561 624.052C207.232 623.278 207.068 622.427 207.068 621.5C207.068 620.573 207.232 619.723 207.561 618.948C207.901 618.174 208.37 617.499 208.969 616.924C209.579 616.349 210.289 615.909 211.098 615.604C211.908 615.288 212.794 615.129 213.756 615.129C214.823 615.129 215.786 615.317 216.642 615.692C217.51 616.056 218.238 616.596 218.825 617.312L216.994 619.001C216.572 618.52 216.102 618.162 215.586 617.928C215.07 617.681 214.507 617.558 213.897 617.558C213.322 617.558 212.794 617.652 212.313 617.84C211.831 618.027 211.415 618.297 211.063 618.649C210.711 619.001 210.435 619.418 210.236 619.899C210.048 620.38 209.954 620.914 209.954 621.5C209.954 622.087 210.048 622.621 210.236 623.102C210.435 623.583 210.711 624 211.063 624.352C211.415 624.704 211.831 624.973 212.313 625.161C212.794 625.349 213.322 625.443 213.897 625.443C214.507 625.443 215.07 625.325 215.586 625.091C216.102 624.844 216.572 624.475 216.994 623.982L218.825 625.672C218.238 626.387 217.51 626.933 216.642 627.308C215.786 627.684 214.818 627.872 213.738 627.872ZM226.476 627.872C225.502 627.872 224.599 627.713 223.766 627.396C222.944 627.08 222.229 626.634 221.618 626.059C221.02 625.484 220.551 624.809 220.21 624.035C219.882 623.26 219.718 622.416 219.718 621.5C219.718 620.585 219.882 619.74 220.21 618.966C220.551 618.192 221.026 617.517 221.636 616.942C222.246 616.367 222.962 615.921 223.783 615.604C224.605 615.288 225.496 615.129 226.458 615.129C227.432 615.129 228.324 615.288 229.134 615.604C229.955 615.921 230.665 616.367 231.263 616.942C231.873 617.517 232.349 618.192 232.689 618.966C233.029 619.729 233.199 620.573 233.199 621.5C233.199 622.416 233.029 623.266 232.689 624.052C232.349 624.827 231.873 625.501 231.263 626.076C230.665 626.64 229.955 627.08 229.134 627.396C228.324 627.713 227.438 627.872 226.476 627.872ZM226.458 625.443C227.01 625.443 227.514 625.349 227.972 625.161C228.441 624.973 228.852 624.704 229.204 624.352C229.556 624 229.826 623.583 230.014 623.102C230.213 622.621 230.313 622.087 230.313 621.5C230.313 620.914 230.213 620.38 230.014 619.899C229.826 619.418 229.556 619.001 229.204 618.649C228.864 618.297 228.459 618.027 227.99 617.84C227.52 617.652 227.01 617.558 226.458 617.558C225.907 617.558 225.397 617.652 224.927 617.84C224.47 618.027 224.065 618.297 223.713 618.649C223.361 619.001 223.085 619.418 222.886 619.899C222.698 620.38 222.604 620.914 222.604 621.5C222.604 622.075 222.698 622.609 222.886 623.102C223.085 623.583 223.355 624 223.695 624.352C224.047 624.704 224.458 624.973 224.927 625.161C225.397 625.349 225.907 625.443 226.458 625.443ZM235.342 627.66V615.34H238.193V627.66H235.342ZM241.117 627.66V615.34H243.475L250.744 624.211H249.6V615.34H252.416V627.66H250.075L242.789 618.79H243.933V627.66H241.117ZM259.379 627.872C258.394 627.872 257.449 627.743 256.546 627.484C255.642 627.215 254.915 626.868 254.363 626.446L255.331 624.299C255.859 624.674 256.481 624.985 257.197 625.232C257.924 625.466 258.658 625.584 259.397 625.584C259.96 625.584 260.412 625.531 260.752 625.425C261.104 625.308 261.362 625.149 261.526 624.95C261.691 624.751 261.773 624.522 261.773 624.264C261.773 623.935 261.644 623.677 261.386 623.489C261.127 623.29 260.787 623.131 260.365 623.014C259.942 622.885 259.473 622.768 258.957 622.662C258.452 622.545 257.942 622.404 257.426 622.24C256.921 622.075 256.458 621.864 256.035 621.606C255.613 621.348 255.267 621.008 254.997 620.585C254.739 620.163 254.61 619.623 254.61 618.966C254.61 618.262 254.797 617.623 255.173 617.048C255.56 616.461 256.135 615.997 256.898 615.657C257.672 615.305 258.64 615.129 259.802 615.129C260.576 615.129 261.339 615.223 262.09 615.411C262.84 615.587 263.503 615.857 264.078 616.22L263.198 618.385C262.623 618.057 262.048 617.816 261.474 617.664C260.899 617.499 260.335 617.417 259.784 617.417C259.232 617.417 258.781 617.482 258.429 617.611C258.077 617.74 257.824 617.91 257.672 618.121C257.519 618.321 257.443 618.555 257.443 618.825C257.443 619.142 257.572 619.4 257.83 619.6C258.088 619.787 258.429 619.94 258.851 620.057C259.274 620.175 259.737 620.292 260.242 620.409C260.758 620.527 261.268 620.661 261.773 620.814C262.289 620.967 262.758 621.172 263.181 621.43C263.603 621.688 263.943 622.028 264.202 622.451C264.471 622.873 264.606 623.407 264.606 624.052C264.606 624.745 264.413 625.378 264.026 625.953C263.638 626.528 263.058 626.992 262.283 627.344C261.52 627.696 260.552 627.872 259.379 627.872Z" fill="#38077C"/>
<path d="M99.8944 530.131C91.4605 533.265 83.0265 537.654 81.1523 539.535C76.1544 544.55 83.3389 543.296 98.3326 536.4C116.762 528.25 128.945 528.564 141.752 537.967C147.687 542.356 158.932 546.744 167.366 547.685C177.674 549.252 182.36 551.133 182.36 554.267C182.36 558.029 177.987 558.656 157.37 557.715C132.068 556.775 124.259 558.969 142.064 562.73C166.117 567.432 177.362 564.925 199.852 550.506C222.655 535.773 229.215 533.579 229.215 540.788C229.215 546.117 168.303 586.553 160.182 586.553C157.058 586.553 145.188 582.165 134.255 576.523C116.762 568.059 113.014 567.119 106.142 570.253C94.8965 575.269 95.8336 580.598 107.391 576.209C115.513 573.075 118.949 574.015 137.066 583.105C150.186 590.001 159.557 592.822 164.242 591.882C168.303 590.628 185.484 580.284 202.664 568.686C224.842 553.64 233.901 545.49 233.901 541.102C233.901 536.4 231.402 534.519 224.53 533.892C219.532 533.265 213.284 531.385 211.41 529.504C209.224 527.623 205.475 526.996 202.664 527.937C200.165 529.191 197.354 528.25 196.104 526.683C193.605 522.294 180.173 525.742 169.553 533.579C158.932 541.102 153.934 541.102 143.938 532.952C132.068 523.862 117.699 522.921 99.8944 530.131ZM187.045 536.4C183.922 539.848 177.674 542.669 173.301 542.669H165.18L174.551 536.4C187.358 527.937 194.542 527.937 187.045 536.4ZM210.473 535.46C210.473 540.162 188.92 552.073 186.733 548.625C185.796 546.744 185.484 544.863 185.796 544.55C199.54 534.206 210.473 530.131 210.473 535.46Z" fill="#6B7AE5"/>
<path fill-rule="evenodd" clip-rule="evenodd" d="M157.541 504.287C177.518 504.287 193.712 488.412 193.712 468.83C193.712 449.247 177.518 433.372 157.541 433.372C137.565 433.372 121.371 449.247 121.371 468.83C121.371 488.412 137.565 504.287 157.541 504.287ZM139.57 479.217C140.133 479.78 140.949 480.061 142.019 480.061C143.06 480.061 143.848 479.78 144.383 479.217C144.946 478.654 145.227 477.852 145.227 476.81V468.957C145.227 467.466 145.607 466.326 146.367 465.537C147.155 464.749 148.352 464.285 149.956 464.144L150.927 464.06C151.884 463.947 152.56 463.638 152.954 463.131C153.376 462.624 153.559 461.935 153.503 461.062C153.474 460.133 153.263 459.472 152.869 459.078C152.503 458.655 151.969 458.473 151.265 458.529C149.435 458.641 147.943 459.162 146.789 460.091C145.987 460.737 145.382 461.567 144.974 462.58V461.822C144.974 460.781 144.707 459.992 144.172 459.458C143.637 458.895 142.863 458.613 141.85 458.613C140.865 458.613 140.09 458.895 139.528 459.458C138.993 459.992 138.725 460.781 138.725 461.822V476.81C138.725 477.852 139.007 478.654 139.57 479.217ZM165.371 484.157C165.85 484.663 166.441 484.917 167.144 484.917C167.904 484.917 168.509 484.663 168.96 484.157C169.438 483.678 169.678 483.073 169.678 482.341V479.892C170.244 479.814 170.807 479.702 171.366 479.555C172.436 479.273 173.379 478.907 174.195 478.457C174.73 478.175 175.11 477.81 175.335 477.359C175.588 476.881 175.687 476.402 175.631 475.924C175.603 475.417 175.448 474.967 175.166 474.573C174.913 474.179 174.547 473.925 174.069 473.813C173.618 473.672 173.069 473.742 172.422 474.024C171.746 474.362 171.085 474.601 170.438 474.742C169.818 474.882 169.241 474.953 168.707 474.953C167.018 474.953 165.709 474.418 164.78 473.348C163.879 472.25 163.429 470.871 163.429 469.211C163.429 468.394 163.542 467.648 163.767 466.973C164.02 466.269 164.372 465.664 164.822 465.157C165.273 464.651 165.821 464.271 166.469 464.017C167.144 463.736 167.904 463.595 168.749 463.595C169.368 463.595 170.001 463.68 170.649 463.849C171.296 463.989 171.887 464.215 172.422 464.524C172.985 464.777 173.492 464.848 173.942 464.735C174.42 464.623 174.814 464.383 175.124 464.017C175.434 463.623 175.617 463.187 175.673 462.709C175.757 462.23 175.701 461.766 175.504 461.315C175.307 460.865 174.955 460.499 174.449 460.218C173.576 459.739 172.591 459.373 171.493 459.12C170.888 458.98 170.283 458.875 169.678 458.804V456.122C169.678 455.362 169.438 454.743 168.96 454.265C168.509 453.786 167.904 453.547 167.144 453.547C166.441 453.547 165.85 453.786 165.371 454.265C164.893 454.743 164.653 455.362 164.653 456.122V459.179C163.735 459.421 162.877 459.767 162.078 460.218C161.008 460.837 160.079 461.611 159.291 462.54C158.531 463.44 157.94 464.468 157.518 465.622C157.124 466.776 156.927 468.014 156.927 469.337C156.927 471.167 157.279 472.828 157.983 474.319C158.686 475.783 159.699 476.993 161.022 477.95C162.08 478.715 163.29 479.273 164.653 479.625V482.341C164.653 483.073 164.893 483.678 165.371 484.157Z" fill="#6B7AE5"/>
<path d="M440.648 61.3363C439.675 61.3363 438.777 61.1838 437.956 60.8787C437.146 60.5619 436.436 60.1161 435.826 59.5411C435.228 58.9662 434.758 58.2915 434.418 57.5171C434.09 56.7427 433.925 55.8921 433.925 54.9651C433.925 54.0382 434.09 53.1875 434.418 52.4131C434.758 51.6387 435.234 50.9641 435.844 50.3891C436.454 49.8142 437.17 49.3742 437.991 49.0691C438.812 48.7523 439.716 48.5939 440.701 48.5939C441.792 48.5939 442.772 48.7758 443.64 49.1395C444.52 49.5033 445.26 50.0313 445.858 50.7235L444.028 52.4131C443.582 51.9438 443.095 51.5977 442.567 51.3747C442.039 51.1401 441.464 51.0227 440.842 51.0227C440.244 51.0227 439.698 51.1166 439.205 51.3043C438.712 51.4921 438.284 51.7619 437.92 52.1139C437.568 52.4659 437.293 52.8825 437.093 53.3635C436.906 53.8446 436.812 54.3785 436.812 54.9651C436.812 55.5401 436.906 56.0681 437.093 56.5491C437.293 57.0302 437.568 57.4526 437.92 57.8163C438.284 58.1683 438.707 58.4382 439.188 58.6259C439.68 58.8137 440.22 58.9075 440.807 58.9075C441.37 58.9075 441.916 58.8195 442.444 58.6435C442.983 58.4558 443.506 58.1449 444.01 57.7107L445.629 59.7699C444.96 60.2745 444.18 60.6617 443.288 60.9315C442.408 61.2014 441.528 61.3363 440.648 61.3363ZM443.024 59.4003V54.7715H445.629V59.7699L443.024 59.4003ZM446.659 61.1251L452.15 48.8051H454.966L460.475 61.1251H457.483L452.977 50.2483H454.103L449.58 61.1251H446.659ZM449.404 58.4851L450.161 56.3203H456.497L457.271 58.4851H449.404ZM461.753 61.1251V48.8051H464.111L471.38 57.6755H470.236V48.8051H473.052V61.1251H470.711L463.425 52.2547H464.569V61.1251H461.753ZM484.415 48.8051H487.266V61.1251H484.415V48.8051ZM478.818 61.1251H475.967V48.8051H478.818V61.1251ZM484.626 56.0739H478.607V53.6627H484.626V56.0739ZM492.803 53.7683H498.735V55.9859H492.803V53.7683ZM493.015 58.8371H499.72V61.1251H490.181V48.8051H499.491V51.0931H493.015V58.8371ZM506.973 61.1251V48.8051H512.306C513.409 48.8051 514.359 48.987 515.157 49.3507C515.955 49.7027 516.571 50.2131 517.005 50.8819C517.439 51.5507 517.656 52.3486 517.656 53.2755C517.656 54.1907 517.439 54.9827 517.005 55.6515C516.571 56.3086 515.955 56.8131 515.157 57.1651C514.359 57.5171 513.409 57.6931 512.306 57.6931H508.557L509.824 56.4435V61.1251H506.973ZM514.805 61.1251L511.725 56.6547H514.77L517.885 61.1251H514.805ZM509.824 56.7603L508.557 55.4227H512.148C513.028 55.4227 513.685 55.235 514.119 54.8595C514.553 54.4723 514.77 53.9443 514.77 53.2755C514.77 52.595 514.553 52.067 514.119 51.6915C513.685 51.3161 513.028 51.1283 512.148 51.1283H508.557L509.824 49.7731V56.7603ZM525.389 61.3363C523.641 61.3363 522.274 60.8494 521.288 59.8755C520.303 58.9017 519.81 57.5113 519.81 55.7043V48.8051H522.661V55.5987C522.661 56.7721 522.901 57.6169 523.383 58.1331C523.864 58.6494 524.538 58.9075 525.407 58.9075C526.275 58.9075 526.949 58.6494 527.431 58.1331C527.912 57.6169 528.152 56.7721 528.152 55.5987V48.8051H530.968V55.7043C530.968 57.5113 530.475 58.9017 529.49 59.8755C528.504 60.8494 527.137 61.3363 525.389 61.3363ZM533.786 61.1251V48.8051H539.805C541.354 48.8051 542.515 49.0985 543.29 49.6851C544.076 50.2718 544.469 51.0462 544.469 52.0083C544.469 52.6537 544.31 53.2169 543.994 53.6979C543.677 54.1673 543.243 54.531 542.691 54.7891C542.14 55.0473 541.506 55.1763 540.79 55.1763L541.125 54.4547C541.899 54.4547 542.586 54.5838 543.184 54.8419C543.782 55.0883 544.246 55.4579 544.574 55.9507C544.915 56.4435 545.085 57.0478 545.085 57.7635C545.085 58.8195 544.668 59.6467 543.835 60.2451C543.002 60.8318 541.776 61.1251 540.157 61.1251H533.786ZM536.619 58.9779H539.946C540.685 58.9779 541.242 58.8606 541.618 58.6259C542.005 58.3795 542.198 57.9923 542.198 57.4643C542.198 56.9481 542.005 56.5667 541.618 56.3203C541.242 56.0622 540.685 55.9331 539.946 55.9331H536.408V53.8563H539.453C540.145 53.8563 540.673 53.739 541.037 53.5043C541.412 53.2579 541.6 52.8883 541.6 52.3955C541.6 51.9145 541.412 51.5566 541.037 51.3219C540.673 51.0755 540.145 50.9523 539.453 50.9523H536.619V58.9779ZM553.139 61.3363C552.189 61.3363 551.303 61.1838 550.482 60.8787C549.672 60.5619 548.968 60.1161 548.37 59.5411C547.771 58.9662 547.302 58.2915 546.962 57.5171C546.633 56.7427 546.469 55.8921 546.469 54.9651C546.469 54.0382 546.633 53.1875 546.962 52.4131C547.302 51.6387 547.771 50.9641 548.37 50.3891C548.98 49.8142 549.69 49.3742 550.499 49.0691C551.309 48.7523 552.195 48.5939 553.157 48.5939C554.225 48.5939 555.187 48.7817 556.043 49.1571C556.912 49.5209 557.639 50.0606 558.226 50.7763L556.395 52.4659C555.973 51.9849 555.504 51.627 554.987 51.3923C554.471 51.1459 553.908 51.0227 553.298 51.0227C552.723 51.0227 552.195 51.1166 551.714 51.3043C551.233 51.4921 550.816 51.7619 550.464 52.1139C550.112 52.4659 549.837 52.8825 549.637 53.3635C549.449 53.8446 549.355 54.3785 549.355 54.9651C549.355 55.5518 549.449 56.0857 549.637 56.5667C549.837 57.0478 550.112 57.4643 550.464 57.8163C550.816 58.1683 551.233 58.4382 551.714 58.6259C552.195 58.8137 552.723 58.9075 553.298 58.9075C553.908 58.9075 554.471 58.7902 554.987 58.5555C555.504 58.3091 555.973 57.9395 556.395 57.4467L558.226 59.1363C557.639 59.8521 556.912 60.3977 556.043 60.7731C555.187 61.1486 554.219 61.3363 553.139 61.3363ZM565.877 61.3363C564.904 61.3363 564 61.1779 563.167 60.8611C562.346 60.5443 561.63 60.0985 561.02 59.5235C560.421 58.9486 559.952 58.2739 559.612 57.4995C559.283 56.7251 559.119 55.8803 559.119 54.9651C559.119 54.0499 559.283 53.2051 559.612 52.4307C559.952 51.6563 560.427 50.9817 561.037 50.4067C561.648 49.8318 562.363 49.3859 563.185 49.0691C564.006 48.7523 564.898 48.5939 565.86 48.5939C566.834 48.5939 567.725 48.7523 568.535 49.0691C569.356 49.3859 570.066 49.8318 570.665 50.4067C571.275 50.9817 571.75 51.6563 572.09 52.4307C572.431 53.1934 572.601 54.0382 572.601 54.9651C572.601 55.8803 572.431 56.731 572.09 57.5171C571.75 58.2915 571.275 58.9662 570.665 59.5411C570.066 60.1043 569.356 60.5443 568.535 60.8611C567.725 61.1779 566.84 61.3363 565.877 61.3363ZM565.86 58.9075C566.411 58.9075 566.916 58.8137 567.373 58.6259C567.843 58.4382 568.253 58.1683 568.605 57.8163C568.957 57.4643 569.227 57.0478 569.415 56.5667C569.615 56.0857 569.714 55.5518 569.714 54.9651C569.714 54.3785 569.615 53.8446 569.415 53.3635C569.227 52.8825 568.957 52.4659 568.605 52.1139C568.265 51.7619 567.86 51.4921 567.391 51.3043C566.922 51.1166 566.411 51.0227 565.86 51.0227C565.308 51.0227 564.798 51.1166 564.329 51.3043C563.871 51.4921 563.466 51.7619 563.114 52.1139C562.762 52.4659 562.487 52.8825 562.287 53.3635C562.099 53.8446 562.005 54.3785 562.005 54.9651C562.005 55.5401 562.099 56.0739 562.287 56.5667C562.487 57.0478 562.756 57.4643 563.097 57.8163C563.449 58.1683 563.859 58.4382 564.329 58.6259C564.798 58.8137 565.308 58.9075 565.86 58.9075ZM574.743 61.1251V48.8051H577.595V61.1251H574.743ZM580.518 61.1251V48.8051H582.877L590.146 57.6755H589.002V48.8051H591.818V61.1251H589.477L582.19 52.2547H583.334V61.1251H580.518ZM598.781 61.3363C597.795 61.3363 596.85 61.2073 595.947 60.9491C595.043 60.6793 594.316 60.3331 593.765 59.9107L594.733 57.7635C595.261 58.139 595.882 58.4499 596.598 58.6963C597.326 58.931 598.059 59.0483 598.798 59.0483C599.361 59.0483 599.813 58.9955 600.153 58.8899C600.505 58.7726 600.763 58.6142 600.928 58.4147C601.092 58.2153 601.174 57.9865 601.174 57.7283C601.174 57.3998 601.045 57.1417 600.787 56.9539C600.529 56.7545 600.189 56.5961 599.766 56.4787C599.344 56.3497 598.874 56.2323 598.358 56.1267C597.854 56.0094 597.343 55.8686 596.827 55.7043C596.322 55.5401 595.859 55.3289 595.437 55.0707C595.014 54.8126 594.668 54.4723 594.398 54.0499C594.14 53.6275 594.011 53.0878 594.011 52.4307C594.011 51.7267 594.199 51.0873 594.574 50.5123C594.961 49.9257 595.536 49.4622 596.299 49.1219C597.073 48.7699 598.041 48.5939 599.203 48.5939C599.977 48.5939 600.74 48.6878 601.491 48.8755C602.242 49.0515 602.905 49.3214 603.48 49.6851L602.6 51.8499C602.025 51.5214 601.45 51.2809 600.875 51.1283C600.3 50.9641 599.737 50.8819 599.185 50.8819C598.634 50.8819 598.182 50.9465 597.83 51.0755C597.478 51.2046 597.226 51.3747 597.073 51.5859C596.921 51.7854 596.845 52.0201 596.845 52.2899C596.845 52.6067 596.974 52.8649 597.232 53.0643C597.49 53.2521 597.83 53.4046 598.253 53.5219C598.675 53.6393 599.138 53.7566 599.643 53.8739C600.159 53.9913 600.67 54.1262 601.174 54.2787C601.69 54.4313 602.16 54.6366 602.582 54.8947C603.005 55.1529 603.345 55.4931 603.603 55.9155C603.873 56.3379 604.008 56.8718 604.008 57.5171C604.008 58.2094 603.814 58.843 603.427 59.4179C603.04 59.9929 602.459 60.4563 601.685 60.8083C600.922 61.1603 599.954 61.3363 598.781 61.3363Z" fill="#38077C"/>
<path fill-rule="evenodd" clip-rule="evenodd" d="M519.244 221.414C552.537 221.414 579.527 194.955 579.527 162.317C579.527 129.68 552.537 103.221 519.244 103.221C485.95 103.221 458.96 129.68 458.96 162.317C458.96 194.955 485.95 221.414 519.244 221.414ZM489.291 178.963C490.229 179.901 491.589 180.37 493.372 180.37C495.108 180.37 496.421 179.901 497.313 178.963C498.251 178.025 498.72 176.688 498.72 174.952V161.864C498.72 159.377 499.353 157.477 500.62 156.164C501.933 154.85 503.927 154.076 506.601 153.842L508.22 153.701C509.814 153.513 510.94 152.997 511.597 152.153C512.301 151.308 512.606 150.159 512.512 148.705C512.465 147.157 512.113 146.054 511.456 145.398C510.847 144.694 509.955 144.389 508.782 144.483C505.733 144.67 503.247 145.538 501.323 147.086C499.986 148.163 498.977 149.546 498.298 151.235V149.971C498.298 148.236 497.852 146.922 496.961 146.031C496.069 145.093 494.779 144.624 493.09 144.624C491.449 144.624 490.159 145.093 489.22 146.031C488.329 146.922 487.883 148.236 487.883 149.971V174.952C487.883 176.688 488.352 178.025 489.291 178.963ZM532.293 187.196C533.09 188.04 534.076 188.463 535.248 188.463C536.515 188.463 537.524 188.04 538.274 187.196C539.072 186.398 539.47 185.39 539.47 184.17V180.088C540.415 179.959 541.353 179.771 542.285 179.526C544.068 179.057 545.639 178.447 547 177.696C547.891 177.227 548.524 176.617 548.9 175.867C549.322 175.069 549.486 174.272 549.392 173.474C549.345 172.63 549.087 171.879 548.618 171.222C548.196 170.566 547.586 170.144 546.789 169.956C546.038 169.721 545.123 169.839 544.044 170.308C542.918 170.871 541.816 171.269 540.737 171.504C539.705 171.739 538.743 171.856 537.852 171.856C535.037 171.856 532.856 170.964 531.308 169.182C529.807 167.352 529.056 165.054 529.056 162.286C529.056 160.925 529.244 159.682 529.619 158.556C530.041 157.384 530.628 156.375 531.378 155.531C532.129 154.686 533.043 154.053 534.122 153.631C535.248 153.161 536.515 152.927 537.922 152.927C538.954 152.927 540.01 153.068 541.089 153.349C542.168 153.584 543.153 153.959 544.044 154.475C544.982 154.897 545.827 155.014 546.577 154.827C547.375 154.639 548.032 154.24 548.548 153.631C549.064 152.974 549.369 152.247 549.463 151.449C549.603 150.652 549.509 149.878 549.181 149.127C548.853 148.376 548.266 147.767 547.422 147.298C545.968 146.5 544.326 145.89 542.496 145.468C541.488 145.235 540.479 145.059 539.47 144.941V140.472C539.47 139.205 539.072 138.173 538.274 137.376C537.524 136.578 536.515 136.179 535.248 136.179C534.076 136.179 533.09 136.578 532.293 137.376C531.495 138.173 531.097 139.205 531.097 140.472V145.566C529.566 145.969 528.136 146.546 526.804 147.298C525.022 148.33 523.473 149.62 522.16 151.168C520.893 152.669 519.908 154.381 519.205 156.305C518.548 158.228 518.219 160.292 518.219 162.497C518.219 165.546 518.806 168.314 519.979 170.8C521.151 173.24 522.84 175.257 525.045 176.852C526.807 178.127 528.825 179.057 531.097 179.643V184.17C531.097 185.39 531.495 186.398 532.293 187.196Z" fill="#6B7AE5"/>
<path d="M437.073 617.417L442.564 605.097H445.38L450.889 617.417H447.897L443.391 606.54H444.518L439.995 617.417H437.073ZM439.819 614.777L440.575 612.612H446.911L447.686 614.777H439.819ZM452.167 617.417V605.097H457.5C458.603 605.097 459.553 605.279 460.351 605.643C461.149 605.995 461.765 606.505 462.199 607.174C462.633 607.843 462.85 608.641 462.85 609.568C462.85 610.483 462.633 611.275 462.199 611.944C461.765 612.612 461.149 613.129 460.351 613.492C459.553 613.844 458.603 614.02 457.5 614.02H453.751L455.018 612.736V617.417H452.167ZM455.018 613.052L453.751 611.697H457.342C458.222 611.697 458.879 611.509 459.313 611.134C459.747 610.758 459.964 610.236 459.964 609.568C459.964 608.887 459.747 608.359 459.313 607.984C458.879 607.608 458.222 607.42 457.342 607.42H453.751L455.018 606.065V613.052ZM464.886 617.417V605.097H470.219C471.322 605.097 472.272 605.279 473.07 605.643C473.868 605.995 474.484 606.505 474.918 607.174C475.352 607.843 475.569 608.641 475.569 609.568C475.569 610.483 475.352 611.275 474.918 611.944C474.484 612.601 473.868 613.105 473.07 613.457C472.272 613.809 471.322 613.985 470.219 613.985H466.47L467.737 612.736V617.417H464.886ZM472.718 617.417L469.638 612.947H472.683L475.798 617.417H472.718ZM467.737 613.052L466.47 611.715H470.06C470.94 611.715 471.597 611.527 472.032 611.152C472.466 610.764 472.683 610.236 472.683 609.568C472.683 608.887 472.466 608.359 472.032 607.984C471.597 607.608 470.94 607.42 470.06 607.42H466.47L467.737 606.065V613.052ZM483.812 617.628C482.838 617.628 481.935 617.47 481.102 617.153C480.28 616.836 479.565 616.39 478.954 615.816C478.356 615.241 477.887 614.566 477.546 613.792C477.218 613.017 477.054 612.172 477.054 611.257C477.054 610.342 477.218 609.497 477.546 608.723C477.887 607.948 478.362 607.274 478.972 606.699C479.582 606.124 480.298 605.678 481.119 605.361C481.941 605.044 482.832 604.886 483.794 604.886C484.768 604.886 485.66 605.044 486.47 605.361C487.291 605.678 488.001 606.124 488.599 606.699C489.209 607.274 489.685 607.948 490.025 608.723C490.365 609.485 490.535 610.33 490.535 611.257C490.535 612.172 490.365 613.023 490.025 613.809C489.685 614.584 489.209 615.258 488.599 615.833C488.001 616.396 487.291 616.836 486.47 617.153C485.66 617.47 484.774 617.628 483.812 617.628ZM483.794 615.2C484.346 615.2 484.85 615.106 485.308 614.918C485.777 614.73 486.188 614.46 486.54 614.108C486.892 613.756 487.162 613.34 487.35 612.859C487.549 612.378 487.649 611.844 487.649 611.257C487.649 610.67 487.549 610.137 487.35 609.656C487.162 609.174 486.892 608.758 486.54 608.406C486.2 608.054 485.795 607.784 485.326 607.596C484.856 607.409 484.346 607.315 483.794 607.315C483.243 607.315 482.733 607.409 482.263 607.596C481.806 607.784 481.401 608.054 481.049 608.406C480.697 608.758 480.421 609.174 480.222 609.656C480.034 610.137 479.94 610.67 479.94 611.257C479.94 611.832 480.034 612.366 480.222 612.859C480.421 613.34 480.691 613.756 481.031 614.108C481.383 614.46 481.794 614.73 482.263 614.918C482.733 615.106 483.243 615.2 483.794 615.2ZM495.979 617.417L490.664 605.097H493.744L498.39 616.009H496.577L501.294 605.097H504.128L498.795 617.417H495.979ZM507.779 610.06H513.71V612.278H507.779V610.06ZM507.99 615.129H514.695V617.417H505.156V605.097H514.467V607.385H507.99V615.129ZM516.964 617.417V605.097H519.815V617.417H516.964ZM525.291 617.417V607.42H521.349V605.097H532.085V607.42H528.142V617.417H525.291ZM536.241 610.06H542.172V612.278H536.241V610.06ZM536.452 615.129H543.158V617.417H533.619V605.097H542.929V607.385H536.452V615.129ZM554.459 617.628C553.473 617.628 552.529 617.499 551.625 617.241C550.722 616.971 549.994 616.625 549.443 616.203L550.411 614.056C550.939 614.431 551.561 614.742 552.277 614.988C553.004 615.223 553.737 615.34 554.477 615.34C555.04 615.34 555.491 615.288 555.832 615.182C556.184 615.065 556.442 614.906 556.606 614.707C556.77 614.507 556.853 614.278 556.853 614.02C556.853 613.692 556.723 613.434 556.465 613.246C556.207 613.046 555.867 612.888 555.445 612.771C555.022 612.642 554.553 612.524 554.037 612.419C553.532 612.301 553.022 612.161 552.505 611.996C552.001 611.832 551.537 611.621 551.115 611.363C550.693 611.105 550.346 610.764 550.077 610.342C549.818 609.92 549.689 609.38 549.689 608.723C549.689 608.019 549.877 607.379 550.253 606.804C550.64 606.218 551.215 605.754 551.977 605.414C552.752 605.062 553.72 604.886 554.881 604.886C555.656 604.886 556.418 604.98 557.169 605.168C557.92 605.344 558.583 605.613 559.158 605.977L558.278 608.142C557.703 607.813 557.128 607.573 556.553 607.42C555.978 607.256 555.415 607.174 554.864 607.174C554.312 607.174 553.861 607.238 553.509 607.368C553.157 607.497 552.904 607.667 552.752 607.878C552.599 608.077 552.523 608.312 552.523 608.582C552.523 608.899 552.652 609.157 552.91 609.356C553.168 609.544 553.509 609.697 553.931 609.814C554.353 609.931 554.817 610.049 555.321 610.166C555.838 610.283 556.348 610.418 556.853 610.571C557.369 610.723 557.838 610.929 558.261 611.187C558.683 611.445 559.023 611.785 559.281 612.208C559.551 612.63 559.686 613.164 559.686 613.809C559.686 614.501 559.493 615.135 559.105 615.71C558.718 616.285 558.137 616.748 557.363 617.1C556.6 617.452 555.632 617.628 554.459 617.628ZM564.257 610.06H570.188V612.278H564.257V610.06ZM564.468 615.129H571.174V617.417H561.634V605.097H570.945V607.385H564.468V615.129ZM578.916 617.628C577.167 617.628 575.801 617.141 574.815 616.168C573.829 615.194 573.337 613.803 573.337 611.996V605.097H576.188V611.891C576.188 613.064 576.428 613.909 576.909 614.425C577.39 614.941 578.065 615.2 578.933 615.2C579.802 615.2 580.476 614.941 580.957 614.425C581.438 613.909 581.679 613.064 581.679 611.891V605.097H584.495V611.996C584.495 613.803 584.002 615.194 583.017 616.168C582.031 617.141 580.664 617.628 578.916 617.628ZM591.36 617.628C590.375 617.628 589.43 617.499 588.527 617.241C587.623 616.971 586.896 616.625 586.344 616.203L587.312 614.056C587.84 614.431 588.462 614.742 589.178 614.988C589.906 615.223 590.639 615.34 591.378 615.34C591.941 615.34 592.393 615.288 592.733 615.182C593.085 615.065 593.343 614.906 593.508 614.707C593.672 614.507 593.754 614.278 593.754 614.02C593.754 613.692 593.625 613.434 593.367 613.246C593.109 613.046 592.768 612.888 592.346 612.771C591.924 612.642 591.454 612.524 590.938 612.419C590.434 612.301 589.923 612.161 589.407 611.996C588.902 611.832 588.439 611.621 588.016 611.363C587.594 611.105 587.248 610.764 586.978 610.342C586.72 609.92 586.591 609.38 586.591 608.723C586.591 608.019 586.779 607.379 587.154 606.804C587.541 606.218 588.116 605.754 588.879 605.414C589.653 605.062 590.621 604.886 591.783 604.886C592.557 604.886 593.32 604.98 594.071 605.168C594.822 605.344 595.485 605.613 596.06 605.977L595.18 608.142C594.605 607.813 594.03 607.573 593.455 607.42C592.88 607.256 592.317 607.174 591.765 607.174C591.214 607.174 590.762 607.238 590.41 607.368C590.058 607.497 589.806 607.667 589.653 607.878C589.501 608.077 589.424 608.312 589.424 608.582C589.424 608.899 589.554 609.157 589.812 609.356C590.07 609.544 590.41 609.697 590.832 609.814C591.255 609.931 591.718 610.049 592.223 610.166C592.739 610.283 593.25 610.418 593.754 610.571C594.27 610.723 594.74 610.929 595.162 611.187C595.584 611.445 595.925 611.785 596.183 612.208C596.453 612.63 596.588 613.164 596.588 613.809C596.588 614.501 596.394 615.135 596.007 615.71C595.62 616.285 595.039 616.748 594.264 617.1C593.502 617.452 592.534 617.628 591.36 617.628ZM468.358 638.417V626.097H473.691C474.794 626.097 475.744 626.279 476.542 626.643C477.34 626.995 477.956 627.505 478.39 628.174C478.824 628.843 479.041 629.641 479.041 630.568C479.041 631.483 478.824 632.275 478.39 632.944C477.956 633.612 477.34 634.129 476.542 634.492C475.744 634.844 474.794 635.02 473.691 635.02H469.942L471.209 633.736V638.417H468.358ZM471.209 634.052L469.942 632.697H473.532C474.412 632.697 475.069 632.509 475.503 632.134C475.938 631.758 476.155 631.236 476.155 630.568C476.155 629.887 475.938 629.359 475.503 628.984C475.069 628.608 474.412 628.42 473.532 628.42H469.942L471.209 627.065V634.052ZM481.077 638.417V626.097H486.409C487.512 626.097 488.463 626.279 489.261 626.643C490.058 626.995 490.674 627.505 491.109 628.174C491.543 628.843 491.76 629.641 491.76 630.568C491.76 631.483 491.543 632.275 491.109 632.944C490.674 633.601 490.058 634.105 489.261 634.457C488.463 634.809 487.512 634.985 486.409 634.985H482.661L483.928 633.736V638.417H481.077ZM488.909 638.417L485.829 633.947H488.873L491.989 638.417H488.909ZM483.928 634.052L482.661 632.715H486.251C487.131 632.715 487.788 632.527 488.222 632.152C488.656 631.764 488.873 631.236 488.873 630.568C488.873 629.887 488.656 629.359 488.222 628.984C487.788 628.608 487.131 628.42 486.251 628.42H482.661L483.928 627.065V634.052ZM500.003 638.628C499.029 638.628 498.125 638.47 497.292 638.153C496.471 637.836 495.755 637.39 495.145 636.816C494.547 636.241 494.077 635.566 493.737 634.792C493.409 634.017 493.244 633.172 493.244 632.257C493.244 631.342 493.409 630.497 493.737 629.723C494.077 628.948 494.553 628.274 495.163 627.699C495.773 627.124 496.489 626.678 497.31 626.361C498.131 626.044 499.023 625.886 499.985 625.886C500.959 625.886 501.851 626.044 502.66 626.361C503.482 626.678 504.192 627.124 504.79 627.699C505.4 628.274 505.875 628.948 506.216 629.723C506.556 630.485 506.726 631.33 506.726 632.257C506.726 633.172 506.556 634.023 506.216 634.809C505.875 635.584 505.4 636.258 504.79 636.833C504.192 637.396 503.482 637.836 502.66 638.153C501.851 638.47 500.965 638.628 500.003 638.628ZM499.985 636.2C500.537 636.2 501.041 636.106 501.499 635.918C501.968 635.73 502.379 635.46 502.731 635.108C503.083 634.756 503.353 634.34 503.54 633.859C503.74 633.378 503.84 632.844 503.84 632.257C503.84 631.67 503.74 631.137 503.54 630.656C503.353 630.174 503.083 629.758 502.731 629.406C502.39 629.054 501.986 628.784 501.516 628.596C501.047 628.409 500.537 628.315 499.985 628.315C499.434 628.315 498.923 628.409 498.454 628.596C497.996 628.784 497.592 629.054 497.24 629.406C496.888 629.758 496.612 630.174 496.412 630.656C496.225 631.137 496.131 631.67 496.131 632.257C496.131 632.832 496.225 633.366 496.412 633.859C496.612 634.34 496.882 634.756 497.222 635.108C497.574 635.46 497.985 635.73 498.454 635.918C498.923 636.106 499.434 636.2 499.985 636.2ZM508.869 638.417V626.097H514.466C515.803 626.097 516.982 626.355 518.003 626.872C519.024 627.376 519.822 628.086 520.397 629.001C520.972 629.916 521.259 631.002 521.259 632.257C521.259 633.501 520.972 634.586 520.397 635.513C519.822 636.428 519.024 637.144 518.003 637.66C516.982 638.165 515.803 638.417 514.466 638.417H508.869ZM511.72 636.076H514.325C515.146 636.076 515.856 635.924 516.454 635.619C517.064 635.302 517.534 634.856 517.862 634.281C518.203 633.706 518.373 633.032 518.373 632.257C518.373 631.471 518.203 630.796 517.862 630.233C517.534 629.658 517.064 629.218 516.454 628.913C515.856 628.596 515.146 628.438 514.325 628.438H511.72V636.076ZM528.883 638.628C527.135 638.628 525.768 638.141 524.782 637.168C523.797 636.194 523.304 634.803 523.304 632.996V626.097H526.155V632.891C526.155 634.064 526.395 634.909 526.877 635.425C527.358 635.941 528.032 636.2 528.901 636.2C529.769 636.2 530.443 635.941 530.925 635.425C531.406 634.909 531.646 634.064 531.646 632.891V626.097H534.462V632.996C534.462 634.803 533.969 636.194 532.984 637.168C531.998 638.141 530.631 638.628 528.883 638.628ZM539.625 638.417V628.42H535.683V626.097H546.419V628.42H542.477V638.417H539.625ZM553.765 638.628C552.791 638.628 551.888 638.47 551.055 638.153C550.233 637.836 549.518 637.39 548.908 636.816C548.309 636.241 547.84 635.566 547.5 634.792C547.171 634.017 547.007 633.172 547.007 632.257C547.007 631.342 547.171 630.497 547.5 629.723C547.84 628.948 548.315 628.274 548.925 627.699C549.535 627.124 550.251 626.678 551.072 626.361C551.894 626.044 552.785 625.886 553.748 625.886C554.721 625.886 555.613 626.044 556.423 626.361C557.244 626.678 557.954 627.124 558.552 627.699C559.163 628.274 559.638 628.948 559.978 629.723C560.318 630.485 560.488 631.33 560.488 632.257C560.488 633.172 560.318 634.023 559.978 634.809C559.638 635.584 559.163 636.258 558.552 636.833C557.954 637.396 557.244 637.836 556.423 638.153C555.613 638.47 554.727 638.628 553.765 638.628ZM553.748 636.2C554.299 636.2 554.804 636.106 555.261 635.918C555.731 635.73 556.141 635.46 556.493 635.108C556.845 634.756 557.115 634.34 557.303 633.859C557.502 633.378 557.602 632.844 557.602 632.257C557.602 631.67 557.502 631.137 557.303 630.656C557.115 630.174 556.845 629.758 556.493 629.406C556.153 629.054 555.748 628.784 555.279 628.596C554.809 628.409 554.299 628.315 553.748 628.315C553.196 628.315 552.686 628.409 552.216 628.596C551.759 628.784 551.354 629.054 551.002 629.406C550.65 629.758 550.374 630.174 550.175 630.656C549.987 631.137 549.893 631.67 549.893 632.257C549.893 632.832 549.987 633.366 550.175 633.859C550.374 634.34 550.644 634.756 550.984 635.108C551.336 635.46 551.747 635.73 552.216 635.918C552.686 636.106 553.196 636.2 553.748 636.2ZM566.679 638.628C565.694 638.628 564.749 638.499 563.846 638.241C562.942 637.971 562.215 637.625 561.663 637.203L562.631 635.056C563.159 635.431 563.781 635.742 564.497 635.988C565.224 636.223 565.958 636.34 566.697 636.34C567.26 636.34 567.712 636.288 568.052 636.182C568.404 636.065 568.662 635.906 568.826 635.707C568.991 635.507 569.073 635.278 569.073 635.02C569.073 634.692 568.944 634.434 568.686 634.246C568.427 634.046 568.087 633.888 567.665 633.771C567.242 633.642 566.773 633.524 566.257 633.419C565.752 633.301 565.242 633.161 564.726 632.996C564.221 632.832 563.758 632.621 563.335 632.363C562.913 632.105 562.567 631.764 562.297 631.342C562.039 630.92 561.91 630.38 561.91 629.723C561.91 629.019 562.097 628.379 562.473 627.804C562.86 627.218 563.435 626.754 564.198 626.414C564.972 626.062 565.94 625.886 567.102 625.886C567.876 625.886 568.639 625.98 569.39 626.168C570.141 626.344 570.803 626.613 571.378 626.977L570.498 629.142C569.923 628.813 569.349 628.573 568.774 628.42C568.199 628.256 567.635 628.174 567.084 628.174C566.533 628.174 566.081 628.238 565.729 628.368C565.377 628.497 565.125 628.667 564.972 628.878C564.819 629.077 564.743 629.312 564.743 629.582C564.743 629.899 564.872 630.157 565.13 630.356C565.389 630.544 565.729 630.697 566.151 630.814C566.574 630.931 567.037 631.049 567.542 631.166C568.058 631.283 568.568 631.418 569.073 631.571C569.589 631.723 570.058 631.929 570.481 632.187C570.903 632.445 571.243 632.785 571.502 633.208C571.771 633.63 571.906 634.164 571.906 634.809C571.906 635.501 571.713 636.135 571.326 636.71C570.938 637.285 570.358 637.748 569.583 638.1C568.821 638.452 567.853 638.628 566.679 638.628Z" fill="#38077C"/>
<path d="M525.243 512.58C526.071 515.286 527.314 530.9 527.936 547.554C528.557 564.209 530.007 578.989 531.043 580.238C532.492 582.112 540.571 582.945 557.763 582.945C585.726 582.945 588.625 581.487 588.625 568.372C588.625 561.502 589.661 559.837 595.668 556.298C606.439 549.844 610.374 542.766 607.474 535.272C604.989 529.443 597.739 524.654 591.318 524.654C588.625 524.654 588.418 522.989 589.454 516.327L590.697 508H557.348H524L525.243 512.58ZM600.639 533.398C604.367 537.145 603.539 542.141 598.568 546.93C589.247 555.257 588.625 554.84 588.625 542.558C588.625 531.732 589.04 530.9 593.389 530.9C596.082 530.9 599.189 531.941 600.639 533.398Z" fill="#6B7AE5"/>
<path d="M442.424 459.474C442.355 459.671 441.463 460.145 440.431 460.465C439.37 460.827 438.472 461.266 438.437 461.456C438.36 461.618 437.391 462.072 436.261 462.448C435.13 462.824 434.225 463.228 434.253 463.368C434.289 463.544 433.383 463.948 432.252 464.324C431.122 464.7 430.223 465.139 430.252 465.28C430.287 465.456 429.389 465.895 428.258 466.271C427.127 466.648 426.222 467.051 426.257 467.227C426.286 467.368 425.422 467.8 424.362 468.162C423.266 468.531 422.298 468.984 422.228 469.182C422.158 469.379 421.224 469.825 420.157 470.152C419.054 470.486 418.219 470.875 418.247 471.016C418.276 471.157 417.764 471.517 417.09 471.801C414.688 472.765 414.668 473.025 416.538 482.47C417.975 489.583 418.322 490.942 418.963 491.582C419.421 492.038 420.054 492.277 420.546 492.177C421.003 492.084 421.417 492.147 421.46 492.358C421.503 492.569 423.716 492.303 426.919 491.69L432.279 490.712L437.682 516.924C442.282 539.341 443.155 543.306 443.804 544.164C444.206 544.705 444.58 545.289 444.615 545.465C444.836 546.557 446.747 546.243 472.667 540.981C489.702 537.524 498.566 535.615 498.517 535.368C498.474 535.157 498.691 534.966 498.972 534.909C499.253 534.852 499.464 534.626 499.421 534.415C499.378 534.203 499.489 533.484 499.649 532.829C499.914 531.785 499.18 527.792 494.721 505.347L489.529 479.091L494.601 477.952C497.368 477.354 499.784 476.643 499.924 476.432C500.092 476.178 500.556 475.937 500.977 475.851C501.399 475.766 501.917 475.257 502.134 474.7C502.476 473.861 502.269 472.473 500.833 465.36C498.892 455.93 498.772 455.698 496.186 455.746C495.455 455.748 494.843 455.616 494.808 455.44C494.772 455.263 494.287 455.215 493.725 455.329C493.163 455.443 492.215 455.453 491.61 455.355C491.04 455.251 489.55 455.114 488.341 455.102C486.134 455.037 483.66 454.916 479.485 454.701C478.269 454.654 476.505 454.609 475.557 454.618C474.608 454.628 473.532 454.553 473.146 454.448C472.759 454.343 471.508 454.304 470.398 454.419C469.245 454.506 468.205 454.424 468.064 454.27C467.698 453.904 442.62 458.994 442.424 459.474ZM466.398 463.222C466.612 464.278 466.571 464.734 466.506 465.115C466.444 465.485 466.408 465.669 466.193 466.279C465.931 467.019 465.841 467.328 465.643 467.628C465.538 467.786 465.381 468.023 465.222 468.263C465.012 468.58 464.961 468.658 464.802 468.898C464.697 469.057 464.541 469.293 464.382 469.533C464.172 469.851 464.172 469.851 463.962 470.168C463.803 470.408 463.7 470.564 463.542 470.803C463.332 471.121 463.28 471.199 463.122 471.438C462.911 471.756 462.911 471.756 462.694 472.038C462.519 472.266 462.193 472.499 461.705 472.935C461.071 473.504 459.675 474.062 458.753 474.249C457.963 474.41 456.419 474.311 456.144 474.229C455.56 474.054 455.854 474.151 454.984 473.915C453.842 473.606 453.823 473.601 453.507 473.39C453.268 473.231 453.19 473.179 452.873 472.969C452.455 472.691 452.24 472.547 451.923 472.337C451.687 472.18 451.343 471.837 451.104 471.678C450.946 471.573 450.71 471.416 450.471 471.257C450.154 471.046 450.041 471.038 449.837 470.836C449.494 470.493 449.49 470.487 449.097 469.886C448.7 469.279 448.515 469.042 448.314 468.725C448.107 468.399 447.645 468.128 447.432 467.072L447.119 465.522L456.602 463.597L466.085 461.673L466.398 463.222Z" fill="#6B7AE5"/>
<rect x="520.377" y="423.259" width="74.2752" height="56.6662" rx="4.65533" stroke="#6B7AE5" stroke-width="8.70998"/>
<rect x="522.962" y="447.894" width="67.2934" height="7.69132" fill="#6B7AE5"/>
<rect x="545.293" y="475.997" width="48.5145" height="7.84587" transform="rotate(-90 545.293 475.997)" fill="#6B7AE5"/>
<rect width="20.9912" height="7.76898" transform="matrix(0.714105 -0.700038 0.714105 0.700038 533.169 462.032)" fill="#6B7AE5"/>
<rect width="20.9912" height="7.76898" transform="matrix(-0.714105 -0.700038 -0.714105 0.700038 565.778 462.032)" fill="#6B7AE5"/>
<path d="M536.089 450.113V450.113C530.881 442.524 540.403 433.384 547.858 438.872V438.872" stroke="#6B7AE5" stroke-width="6.00688"/>
<path d="M562.682 449.965V449.965C567.89 442.376 558.367 433.236 550.913 438.724V438.724" stroke="#6B7AE5" stroke-width="6.00688"/>
</svg>
