<svg width="186" height="27" viewBox="0 0 186 27" fill="none" xmlns="http://www.w3.org/2000/svg">
<path d="M0.988 26V0.799998H11.896C14.152 0.799998 16.096 1.172 17.728 1.916C19.36 2.636 20.62 3.68 21.508 5.048C22.396 6.416 22.84 8.048 22.84 9.944C22.84 11.816 22.396 13.436 21.508 14.804C20.62 16.148 19.36 17.18 17.728 17.9C16.096 18.62 14.152 18.98 11.896 18.98H4.228L6.82 16.424V26H0.988ZM17.008 26L10.708 16.856H16.936L23.308 26H17.008ZM6.82 17.072L4.228 14.336H11.572C13.372 14.336 14.716 13.952 15.604 13.184C16.492 12.392 16.936 11.312 16.936 9.944C16.936 8.552 16.492 7.472 15.604 6.704C14.716 5.936 13.372 5.552 11.572 5.552H4.228L6.82 2.78V17.072ZM38.6567 26.432C35.0807 26.432 32.2847 25.436 30.2687 23.444C28.2527 21.452 27.2447 18.608 27.2447 14.912V0.799998H33.0767V14.696C33.0767 17.096 33.5687 18.824 34.5527 19.88C35.5367 20.936 36.9167 21.464 38.6927 21.464C40.4687 21.464 41.8487 20.936 42.8327 19.88C43.8167 18.824 44.3087 17.096 44.3087 14.696V0.799998H50.0687V14.912C50.0687 18.608 49.0607 21.452 47.0447 23.444C45.0287 25.436 42.2327 26.432 38.6567 26.432ZM55.8318 26V0.799998H68.1438C71.3118 0.799998 73.6878 1.4 75.2718 2.6C76.8798 3.8 77.6838 5.384 77.6838 7.352C77.6838 8.672 77.3598 9.824 76.7118 10.808C76.0638 11.768 75.1758 12.512 74.0478 13.04C72.9198 13.568 71.6238 13.832 70.1598 13.832L70.8438 12.356C72.4278 12.356 73.8318 12.62 75.0558 13.148C76.2798 13.652 77.2278 14.408 77.8998 15.416C78.5958 16.424 78.9438 17.66 78.9438 19.124C78.9438 21.284 78.0918 22.976 76.3878 24.2C74.6838 25.4 72.1758 26 68.8638 26H55.8318ZM61.6278 21.608H68.4318C69.9438 21.608 71.0838 21.368 71.8517 20.888C72.6438 20.384 73.0398 19.592 73.0398 18.512C73.0398 17.456 72.6438 16.676 71.8517 16.172C71.0838 15.644 69.9438 15.38 68.4318 15.38H61.1958V11.132H67.4238C68.8398 11.132 69.9198 10.892 70.6638 10.412C71.4318 9.908 71.8158 9.152 71.8158 8.144C71.8158 7.16 71.4318 6.428 70.6638 5.948C69.9198 5.444 68.8398 5.192 67.4238 5.192H61.6278V21.608ZM85.1591 26V0.799998H95.1311C97.7231 0.799998 99.7751 1.34 101.287 2.42C102.823 3.476 103.591 5.06 103.591 7.172C103.591 8.564 103.255 9.728 102.583 10.664C101.911 11.576 100.975 12.26 99.7751 12.716C98.5751 13.172 97.1951 13.4 95.6351 13.4L96.2471 12.932C98.1911 12.932 99.7991 13.184 101.071 13.688C102.367 14.168 103.339 14.888 103.987 15.848C104.635 16.808 104.959 17.996 104.959 19.412C104.959 21.524 104.203 23.156 102.691 24.308C101.203 25.436 98.9231 26 95.8511 26H85.1591ZM85.8791 25.316H95.9951C98.6831 25.316 100.723 24.848 102.115 23.912C103.531 22.952 104.239 21.452 104.239 19.412C104.239 17.372 103.531 15.884 102.115 14.948C100.723 14.012 98.6831 13.544 95.9951 13.544H85.6991V12.86H95.2751C97.6751 12.86 99.5351 12.38 100.855 11.42C102.199 10.46 102.871 9.044 102.871 7.172C102.871 5.3 102.199 3.884 100.855 2.924C99.5351 1.964 97.6751 1.484 95.2751 1.484H85.8791V25.316ZM107.625 26L119.325 0.799998H120.045L131.745 26H130.917L119.505 1.376H119.865L108.453 26H107.625ZM111.477 18.404L111.837 17.72H127.497L127.857 18.404H111.477ZM136.874 26V0.799998H137.486L156.35 25.172H155.954V0.799998H156.674V26H156.062L137.198 1.628H137.594V26H136.874ZM166.841 19.448V18.476L184.049 0.799998H185.021L173.717 12.428L173.285 12.824L166.841 19.448ZM166.265 26V0.799998H166.985V26H166.265ZM184.877 26L172.889 12.428L173.429 11.96L185.849 26H184.877Z" fill="white"/>
</svg>
